<?xml version="1.0" encoding="utf-8"?>
<!-- Generator: Adobe Illustrator 21.0.2, SVG Export Plug-In . SVG Version: 6.00 Build 0)  -->
<svg version="1.1" id="Laag_1" xmlns="http://www.w3.org/2000/svg" xmlns:xlink="http://www.w3.org/1999/xlink" x="0px" y="0px"
	 viewBox="0 0 74.9 104.7" style="enable-background:new 0 0 74.9 104.7;" xml:space="preserve">
<style type="text/css">
	.st0{fill:#3F1F71;}
	.st1{fill:none;}
</style>
<g>
	<path class="st0" d="M30.6,18.8H11.8c-0.9,0-1.6,0.7-1.6,1.6s0.7,1.6,1.6,1.6h18.8c0.9,0,1.6-0.7,1.6-1.6
		C32.2,19.6,31.5,18.8,30.6,18.8z"/>
	<path class="st0" d="M25.6,34.1c0,0.9,0.7,1.6,1.6,1.6h20.5c0.9,0,1.6-0.7,1.6-1.6s-0.7-1.6-1.6-1.6H27.2
		C26.3,32.5,25.6,33.2,25.6,34.1z"/>
	<path class="st0" d="M11.8,44.2H63c0.9,0,1.6-0.7,1.6-1.6S63.9,41,63,41H11.8c-0.9,0-1.6,0.7-1.6,1.6
		C10.2,43.5,10.9,44.2,11.8,44.2z"/>
	<path class="st0" d="M63,49.6H11.8c-0.9,0-1.6,0.7-1.6,1.6s0.7,1.6,1.6,1.6H63c0.9,0,1.6-0.7,1.6-1.6C64.6,50.3,63.9,49.6,63,49.6z
		"/>
	<path class="st0" d="M58.2,74.3h-5.7c-1.3,0-2.6,0.7-3.3,1.9c0,0,0,0-0.1,0s-7.8-2.2-7.8-8.7V59c0-0.7-0.4-1.2-1.1-1.4
		c-0.2-0.1-4.3-1.3-7.3,0.9C31,59.9,30,62.3,30,65.6v7.3H19.9c-3.9,0-7,3.2-7,7v0.2c0,0.1,0,0.2,0,0.2l2.8,17.5
		c0.5,4.4,3.6,6.9,8.3,6.9h20.7c3.9,0,7-3.2,7-7V78.3c0-0.4,0.3-0.8,0.8-0.8h5.7c0.4,0,0.8,0.3,0.8,0.8v20.6c0,0.4-0.3,0.8-0.8,0.8
		h-3.3c-0.8,0-1.5,0.7-1.5,1.5s0.7,1.5,1.5,1.5h3.3c2.1,0,3.8-1.7,3.8-3.8V78.3C62,76,60.3,74.3,58.2,74.3z M48.8,97.5
		c0,2.2-1.8,4-4,4H24c-3.2,0-5-1.4-5.3-4.3l-2.8-17.4v-0.1c0-2.2,1.8-4,4-4h11.7c0.8,0,1.5-0.7,1.5-1.5v-8.8c0-2.3,0.6-3.8,1.7-4.6
		c1.1-0.8,2.7-0.8,3.6-0.7v7.2c0,8.8,9.9,11.6,10,11.6l0,0c0.1,0,0.2,0,0.3,0.1v18.5H48.8z"/>
	<path class="st0" d="M74.4,19.3L55.6,0.5C55.3,0.2,54.9,0,54.5,0H5C2.2,0,0,2.2,0,5v79.5c0,2.8,2.2,5,5,5h3.6l0,0
		c0.9,0,1.6-0.7,1.6-1.6s-0.7-1.6-1.6-1.6l0,0H5c-1,0-1.8-0.8-1.8-1.8V5.1c0-1,0.8-1.8,1.8-1.8h47.9v13.8c0,2.8,2.2,5,5,5h13.8v62.5
		c0,1-0.8,1.8-1.8,1.8h-3.6c-0.9,0-1.6,0.7-1.6,1.6c0,0.9,0.7,1.6,1.6,1.6l0,0h3.6c2.8,0,5-2.2,5-5V20.4
		C74.9,20,74.7,19.6,74.4,19.3z M57.9,18.8c-1,0-1.8-0.8-1.8-1.8V5.5l13.3,13.3H57.9z"/>
</g>
<rect x="-65.2" y="-48.6" class="st1" width="200" height="200"/>
</svg>
