<?xml version="1.0" encoding="utf-8"?>
<!-- Generator: Adobe Illustrator 21.0.2, SVG Export Plug-In . SVG Version: 6.00 Build 0)  -->
<svg version="1.1" id="Laag_1" xmlns="http://www.w3.org/2000/svg" xmlns:xlink="http://www.w3.org/1999/xlink" x="0px" y="0px"
	 viewBox="0 0 97.2 97.6" style="enable-background:new 0 0 97.2 97.6;" xml:space="preserve">
<style type="text/css">
	.st0{fill:none;}
	.st1{fill:#3F1F71;}
</style>
<rect x="-51.1" y="-47.3" class="st0" width="200" height="200"/>
<g>
	<path class="st1" d="M97.2,57.2L97.2,57.2L97.2,57.2c0-0.1,0-0.1,0-0.2c0,0,0,0,0-0.1v-0.1v-0.1c0,0,0,0,0-0.1v-0.1l0,0L82.7,16.2
		c2.6-0.9,4.5-3.4,4.5-6.3c0-0.9-0.7-1.6-1.6-1.6C84.7,8.3,84,9,84,9.9c0,1.9-1.6,3.5-3.5,3.5c-5.2,0-8.8-1.5-12.6-3.1
		c-4.1-1.7-8.3-3.4-14.7-3.6c-0.5-1.5-1.6-2.6-3.1-3.1v-2c0-0.9-0.7-1.6-1.6-1.6s-1.6,0.7-1.6,1.6v2c-1.5,0.5-2.6,1.7-3.1,3.1
		c-6.4,0.2-10.6,2-14.7,3.6c-3.8,1.6-7.4,3.1-12.6,3.1c-1.9,0-3.5-1.6-3.5-3.5c0-0.9-0.7-1.6-1.6-1.6c-0.9,0-1.6,0.7-1.6,1.6
		c0,2.9,1.9,5.4,4.5,6.3L0,56.7l0,0v0.1c0,0,0,0,0,0.1V57v0.1c0,0,0,0,0,0.1v0.1l0,0l0,0c0,0,0,0,0,0.1c0,3.2,1.9,6.2,5.1,8.3
		c3.1,2.1,7.2,3.2,11.6,3.2c4.3,0,8.5-1.1,11.6-3.2c3.3-2.2,5.1-5.1,5.1-8.3c0,0,0,0,0-0.1l0,0l0,0v-0.1c0,0,0,0,0-0.1V57v-0.1
		c0,0,0,0,0-0.1v-0.1l0,0l-14.5-40c4.6-0.4,8.2-1.8,11.6-3.2c3.8-1.6,7.7-3.2,13.5-3.4c0.5,1.4,1.6,2.6,3.1,3.1v46.1
		c-2,0.7-3.4,2.5-3.4,4.7c0,1.3,0.5,2.5,1.3,3.4c-0.8,0.9-1.3,2.1-1.3,3.4v16.9h-6.8c-2.7,0-4.9,2.2-4.9,4.9V96
		c0,0.9,0.7,1.6,1.6,1.6h30.3c0.9,0,1.6-0.7,1.6-1.6v-3.4c0-2.7-2.2-4.9-4.9-4.9h-6.8V70.8c0-1.3-0.5-2.5-1.3-3.4
		c0.8-0.9,1.3-2.1,1.3-3.4c0-2.2-1.4-4-3.4-4.7V13.1c1.4-0.5,2.6-1.6,3.1-3.1c5.8,0.2,9.7,1.8,13.5,3.4c3.4,1.4,6.9,2.9,11.6,3.2
		L63.9,56.7l0,0v0.1c0,0,0,0,0,0.1V57v0.1c0,0,0,0,0,0.1v0.1l0,0l0,0c0,0,0,0,0,0.1c0,3.2,1.9,6.2,5.1,8.3c3.1,2.1,7.2,3.2,11.6,3.2
		c4.3,0,8.5-1.1,11.6-3.2C95.4,63.5,97.2,60.5,97.2,57.2C97.2,57.3,97.2,57.3,97.2,57.2L97.2,57.2z M16.6,19.8l12.9,35.8H3.8
		L16.6,19.8z M16.6,65.7c-6.5,0-12.1-3-13.3-6.9h26.6C28.7,62.7,23.1,65.7,16.6,65.7L16.6,65.7z M62.1,92.5v1.8H35v-1.8
		c0-1,0.8-1.8,1.8-1.8h23.5C61.3,90.7,62.1,91.5,62.1,92.5L62.1,92.5z M46.8,87.6V70.7c0-1,0.8-1.8,1.8-1.8s1.8,0.8,1.8,1.8v16.9
		H46.8z M48.6,65.7c-1,0-1.8-0.8-1.8-1.8s0.8-1.8,1.8-1.8s1.8,0.8,1.8,1.8S49.6,65.7,48.6,65.7L48.6,65.7z M48.6,10.2L48.6,10.2
		L48.6,10.2c-1,0-1.8-0.8-1.8-1.8s0.8-1.8,1.8-1.8l0,0l0,0c1,0,1.8,0.8,1.8,1.8S49.6,10.2,48.6,10.2L48.6,10.2z M93.4,55.6H67.6
		l12.9-35.8L93.4,55.6z M80.5,65.7c-6.5,0-12.1-3-13.3-6.9h26.6C92.6,62.7,87,65.7,80.5,65.7L80.5,65.7z"/>
</g>
</svg>
