<?xml version="1.0" encoding="utf-8"?>
<!-- Generator: Adobe Illustrator 21.0.2, SVG Export Plug-In . SVG Version: 6.00 Build 0)  -->
<svg version="1.1" id="Laag_1" xmlns="http://www.w3.org/2000/svg" xmlns:xlink="http://www.w3.org/1999/xlink" x="0px" y="0px"
	 viewBox="0 0 64.8 104.4" style="enable-background:new 0 0 64.8 104.4;" xml:space="preserve">
<style type="text/css">
	.st0{fill:#3F1F71;}
	.st1{fill:none;}
</style>
<g>
	<path class="st0" d="M32.4,14.3c-9.3,0-16.9,7.6-16.9,16.9s7.6,16.9,16.9,16.9s16.9-7.6,16.9-16.9C49.2,21.8,41.7,14.3,32.4,14.3z
		 M32.4,45.2c-7.8,0-14.1-6.3-14.1-14.1S24.6,17,32.4,17c7.7,0,14.1,6.3,14.1,14.1C46.4,38.9,40.1,45.2,32.4,45.2z"/>
	<path class="st0" d="M38.2,25.1l-6.7,9.7l-5-5c-0.5-0.5-1.4-0.6-2,0s-0.5,1.4,0,2l6,6c0.5,0.5,1.4,0.5,2,0l7.7-10.7
		c0.6-0.6,0.6-1.4,0-2S38.8,24.5,38.2,25.1z"/>
	<path class="st0" d="M61.6,25.3c-0.9-1-1.9-2.1-2.2-3c-0.3-1-0.2-2.4,0-3.9c0.2-2.2,0.5-4.6-0.8-6.4c-1.3-1.8-3.8-2.3-5.9-2.8
		c-1.4-0.3-2.8-0.6-3.6-1.2c-0.8-0.6-1.5-1.8-2.2-3c-1.1-1.9-2.3-4.1-4.5-4.8c-2.1-0.7-4.2,0.3-6.3,1.2c-1.3,0.6-2.7,1.2-3.7,1.2
		S30,2,28.7,1.4c-2.1-0.9-4.2-1.9-6.3-1.2C20.2,0.9,19,3.1,17.9,5c-0.7,1.2-1.4,2.5-2.2,3c-0.8,0.6-2.2,0.9-3.6,1.2
		C10,9.6,7.5,10.1,6.2,12c-1.3,1.8-1.1,4.3-0.8,6.4c0.2,1.4,0.3,2.9,0,3.9c-0.3,0.9-1.3,2-2.2,3C1.7,26.9,0,28.8,0,31.1
		s1.7,4.2,3.2,5.8c0.9,1,1.9,2.1,2.2,3c0.3,1,0.2,2.4,0,3.8c-0.2,2.2-0.5,4.6,0.8,6.4s3.8,2.3,5.9,2.8c1.4,0.3,2.8,0.6,3.6,1.2
		c0.8,0.6,1.5,1.8,2.2,3c1.1,1.9,2.3,4.1,4.5,4.8c2.1,0.7,4.2-0.3,6.3-1.2c1.3-0.6,2.7-1.2,3.7-1.2s2.4,0.6,3.7,1.2
		c1.6,0.7,3.2,1.4,4.8,1.4c0.5,0,1-0.1,1.5-0.2c2.2-0.7,3.4-2.9,4.5-4.8c0.7-1.2,1.4-2.5,2.2-3c0.8-0.6,2.2-0.9,3.6-1.2
		c2.1-0.4,4.6-0.9,5.9-2.8c1.3-1.8,1.1-4.3,0.8-6.4c-0.2-1.4-0.3-2.9,0-3.9c0.3-0.9,1.3-2,2.2-3c1.5-1.6,3.2-3.5,3.2-5.8
		S63.1,26.9,61.6,25.3z M59.4,34.9c-1.1,1.2-2.3,2.5-2.8,4.1s-0.3,3.4-0.1,5.1c0.2,1.7,0.4,3.4-0.3,4.3c-0.7,0.9-2.4,1.3-4.1,1.6
		c-1.7,0.3-3.4,0.7-4.8,1.7c-1.3,1-2.2,2.5-3,4s-1.7,3.1-2.8,3.4c-1,0.3-2.6-0.4-4.1-1.1c-1.6-0.7-3.3-1.5-5-1.5s-3.4,0.8-5,1.5
		c-1.5,0.7-3.1,1.4-4.1,1.1c-1.1-0.4-2-1.9-2.8-3.4s-1.7-3-3-4s-3.1-1.3-4.8-1.7c-1.7-0.3-3.4-0.7-4.1-1.6c-0.6-0.9-0.4-2.6-0.3-4.3
		c0.2-1.7,0.4-3.5-0.1-5.1c-0.5-1.5-1.7-2.8-2.8-4.1C4.2,33.6,3,32.3,3,31.1c0-1.2,1.2-2.5,2.4-3.8c1.1-1.2,2.3-2.5,2.8-4.1
		s0.3-3.4,0.1-5.1c-0.2-1.7-0.4-3.4,0.3-4.3c0.7-0.9,2.4-1.3,4.1-1.6s3.4-0.7,4.8-1.7c1.3-1,2.2-2.5,3-4s1.7-3.1,2.8-3.4
		c1-0.3,2.6,0.4,4.1,1.1c1.6,0.7,3.3,1.5,5,1.5s3.4-0.8,5-1.5c1.5-0.7,3.1-1.4,4.1-1.1c1.1,0.4,2,1.9,2.8,3.4s1.7,3,3,4
		s3.1,1.3,4.8,1.7c1.7,0.3,3.4,0.7,4.1,1.6c0.6,0.9,0.4,2.6,0.3,4.3c-0.2,1.7-0.4,3.5,0.1,5.1c0.5,1.5,1.7,2.8,2.8,4.1
		c1.2,1.3,2.4,2.6,2.4,3.8C61.8,32.3,60.6,33.6,59.4,34.9z"/>
	<path class="st0" d="M50.3,65.8c-0.2-0.8-1.1-1.3-1.9-1c-0.8,0.2-1.3,1.1-1,1.9l8.2,28.1l-7.1-4.7c-0.4-0.2-0.8-0.3-1.2-0.2
		c-0.4,0.1-0.8,0.4-1,0.8L42,99.1l-8.3-28.4c-0.1-0.2-0.2-0.4-0.3-0.5c0-0.7-0.4-1.3-1.1-1.5c-0.8-0.2-1.6,0.2-1.9,1L22.3,98
		L18,89.6c-0.2-0.4-0.5-0.7-1-0.8c-0.4-0.1-0.9,0-1.2,0.2l-7.1,4.7l8.2-28.1c0.2-0.8-0.2-1.6-1-1.9c-0.8-0.2-1.6,0.2-1.9,1L4.7,96.8
		c-0.2,0.6,0,1.3,0.6,1.6c0.5,0.4,1.2,0.4,1.7,0l9.1-6.1l5.2,10.3c0.3,0.5,0.8,0.8,1.3,0.8h0.1c0.6-0.1,1.1-0.5,1.3-1.1l7.9-27.2
		l8.2,28.2c0.2,0.6,0.7,1,1.3,1.1h0.1c0.6,0,1.1-0.3,1.3-0.8L48,93.3l9.1,6.1c0.5,0.3,1.2,0.3,1.7,0c0.5-0.4,0.7-1,0.6-1.6
		L50.3,65.8z"/>
</g>
<rect x="-67.7" y="-48.8" class="st1" width="200" height="200"/>
</svg>
