<?xml version="1.0" standalone="no"?>
<!DOCTYPE svg PUBLIC "-//W3C//DTD SVG 1.1//EN" "http://www.w3.org/Graphics/SVG/1.1/DTD/svg11.dtd" >
<svg xmlns="http://www.w3.org/2000/svg" xmlns:xlink="http://www.w3.org/1999/xlink" version="1.1">
<metadata>
Created by FontForge 20170104 at Tue Jan 11 14:42:37 2011
 By myTaste
Copyright (c) 2010 by de Designpolitie. All rights reserved.
</metadata>
<defs>
<font id="VEH" horiz-adv-x="449" >
  <font-face 
    font-family="VEH"
    font-weight="400"
    font-stretch="normal"
    units-per-em="1000"
    panose-1="2 0 8 3 0 0 0 2 0 4"
    ascent="800"
    descent="-200"
    x-height="501"
    cap-height="664"
    bbox="-85 -216 889 881"
    underline-thickness="50"
    underline-position="-100"
    unicode-range="U+0020-2212"
  />
<missing-glyph horiz-adv-x="275" 
 />
    <glyph glyph-name=".notdef" horiz-adv-x="275" 
 />
    <glyph glyph-name="b" unicode="b" horiz-adv-x="437" 
d="M43 616q0 16 11 27t27 11q15 0 26.5 -11t11.5 -27v-145q22 16 49 25t56 9q37 0 70 -14t58 -38.5t39 -57.5t14 -70v-149q0 -37 -14.5 -70t-39 -57.5t-57.5 -38.5t-70 -14q-38 0 -70.5 14t-57.5 38.5t-39 57.5t-14 70v440zM119 176q0 -21 8 -40t22.5 -33.5t33.5 -22.5
t41 -8q21 0 40.5 8t33.5 22.5t22.5 33.5t8.5 40v149q0 21 -8 40t-22.5 33.5t-33.5 22.5t-41 8q-21 0 -40 -8t-33 -21.5t-22.5 -31.5t-9.5 -39v-153z" />
    <glyph glyph-name="c" unicode="c" horiz-adv-x="430" 
d="M37 325q0 38 14.5 71t40 57t59 38t71.5 14q7 0 27.5 -2.5t45.5 -13.5t49.5 -33.5t40.5 -62.5q3 -8 3 -14q0 -16 -11 -27t-27 -11q-12 0 -21.5 6.5t-13.5 17.5q-14 30 -40 47t-57 17q-22 0 -41 -8t-33.5 -22.5t-22.5 -33.5t-8 -40v-149q0 -21 8.5 -40t22.5 -33.5
t33.5 -22.5t40.5 -8q32 0 58 17t39 47q5 11 14 17.5t21 6.5q16 0 27 -11.5t11 -26.5q0 -7 -3 -14q-20 -44 -48 -67t-54.5 -33t-45 -11t-19.5 -1q-37 0 -70 14t-57.5 38.5t-39 57.5t-14.5 70v149z" />
    <glyph glyph-name="d" unicode="d" horiz-adv-x="438" 
d="M308 616q0 16 11 27t27 11q15 0 26.5 -11t11.5 -27v-440q0 -37 -14.5 -70t-39 -57.5t-57.5 -38.5t-70 -14q-38 0 -70.5 14t-57.5 38.5t-39 57.5t-14 70v149q0 37 14.5 70t39 57.5t57.5 38.5t70 14q29 0 55.5 -9t49.5 -25v145zM98 176q0 -21 8 -40t22.5 -33.5t33.5 -22.5
t41 -8q21 0 40.5 8t33.5 22.5t22.5 33.5t8.5 40v149q0 21 -8 40t-22.5 33.5t-33.5 22.5t-41 8q-21 0 -40.5 -8t-33.5 -22.5t-22.5 -33.5t-8.5 -40v-149z" />
    <glyph glyph-name="e" unicode="e" horiz-adv-x="446" 
d="M38 325q0 37 14 70t39 57.5t57.5 38.5t70.5 14q37 0 70 -14t57.5 -38.5t39 -57.5t14.5 -70v-77q0 -16 -11 -27t-27 -11h-248v-34q0 -21 8.5 -40t22.5 -33.5t33.5 -22.5t40.5 -8q32 0 57.5 16.5t38.5 44.5l1 3q4 11 13.5 17.5t21.5 6.5q16 0 27 -11.5t11 -26.5
q0 -7 -5 -18q-21 -48 -65 -78t-100 -30q-37 0 -70 14t-57.5 38.5t-39 57.5t-14.5 70v149zM114 286h210v39q0 21 -8.5 40t-22.5 33.5t-33.5 22.5t-40.5 8q-22 0 -41 -8t-33.5 -22.5t-22.5 -33.5t-8 -40v-39z" />
    <glyph glyph-name="n" unicode="n" horiz-adv-x="456" 
d="M42 325q0 37 14 70t39 57.5t57.5 38.5t70.5 14q37 0 70 -14t57.5 -38.5t39 -57.5t14.5 -70v-291q0 -16 -11.5 -27t-26.5 -11q-16 0 -27 11t-11 27v291q0 21 -8.5 40t-22.5 33.5t-33.5 22.5t-40.5 8q-22 0 -41 -8t-33.5 -22.5t-22.5 -33.5t-8 -40v-291q0 -16 -11.5 -27
t-26.5 -11q-16 0 -27 11t-11 27v291z" />
    <glyph glyph-name="o" unicode="o" 
d="M38 325q0 37 14 70t39 57.5t57.5 38.5t70.5 14q37 0 70 -14t57.5 -38.5t39 -57.5t14.5 -70v-149q0 -37 -14 -70t-39 -57.5t-58 -38.5t-70 -14t-70 14t-57.5 38.5t-39 57.5t-14.5 70v149zM114 176q0 -21 8.5 -40t22.5 -33.5t33.5 -22.5t40.5 -8q22 0 41 8t33.5 22.5
t22.5 33.5t8 40v149q0 21 -8.5 40t-22.5 33.5t-33.5 22.5t-40.5 8q-22 0 -41 -8t-33.5 -22.5t-22.5 -33.5t-8 -40v-149z" />
    <glyph glyph-name="p" unicode="p" horiz-adv-x="437" 
d="M43 325q0 37 14 70t39 57.5t57.5 38.5t70.5 14q37 0 70 -14t57.5 -38.5t39 -57.5t14.5 -70v-149q0 -37 -14 -70t-39 -57.5t-58 -38.5t-70 -14q-29 0 -56 9t-49 25v-168q0 -16 -11.5 -27t-26.5 -11q-16 0 -27 11t-11 27v306v157zM119 176q0 -21 8.5 -40t22.5 -33.5
t33.5 -22.5t40.5 -8q22 0 41 8t33.5 22.5t22.5 33.5t8 40v149q0 21 -8.5 40t-22.5 33.5t-33.5 22.5t-40.5 8q-22 0 -41 -8t-33.5 -22.5t-22.5 -33.5t-8 -40v-149z" />
    <glyph glyph-name="q" unicode="q" horiz-adv-x="438" 
d="M22 325q0 37 14.5 70t39 57.5t57.5 38.5t70 14t70 -14t58 -38.5t39 -57.5t14 -70v-157v-306q0 -16 -11 -27t-27 -11q-15 0 -26.5 11t-11.5 27v168q-22 -16 -49 -25t-56 -9q-38 0 -70.5 14t-57.5 38.5t-39 57.5t-14 70v149zM98 176q0 -21 8 -40t22.5 -33.5t33.5 -22.5
t41 -8q21 0 40.5 8t33.5 22.5t22.5 33.5t8.5 40v149q0 21 -8 40t-22.5 33.5t-33.5 22.5t-41 8q-21 0 -40.5 -8t-33.5 -22.5t-22.5 -33.5t-8.5 -40v-149z" />
    <glyph glyph-name="u" unicode="u" 
d="M42 467q0 16 11 27t27 11q15 0 26.5 -11t11.5 -27v-291q0 -21 8 -40t22.5 -33.5t33.5 -22.5t41 -8q21 0 40.5 8t33.5 22.5t22.5 33.5t8.5 40v291q0 16 11 27t27 11q15 0 26.5 -11t11.5 -27v-291q0 -37 -14.5 -70t-39 -57.5t-57.5 -38.5t-70 -14q-38 0 -70.5 14
t-57.5 38.5t-39 57.5t-14 70v291z" />
    <glyph glyph-name="h" unicode="h" horiz-adv-x="443" 
d="M46 616q0 16 11 27t27 11q15 0 26.5 -11t11.5 -27v-145q22 16 49 25t56 9q37 0 70 -14t57.5 -38.5t39 -57.5t14.5 -70v-291q0 -16 -11.5 -27t-26.5 -11q-16 0 -27 11t-11 27v291q0 21 -8.5 40t-22.5 33.5t-33.5 22.5t-40.5 8q-22 0 -40.5 -8t-33 -21.5t-22.5 -31.5
t-9 -39v-295q0 -16 -11.5 -27t-26.5 -11q-16 0 -27 11t-11 27v582z" />
    <glyph glyph-name="g" unicode="g" horiz-adv-x="441" 
d="M28 325q0 37 14 70t39 57.5t57.5 38.5t70.5 14q37 0 70 -14t57.5 -38.5t39 -57.5t14.5 -70v-321q0 -37 -14.5 -70t-39 -57.5t-57.5 -38.5t-70 -14q-16 0 -27 11t-11 27t11 27t27 11q21 0 40.5 8t33.5 22.5t22.5 33.5t8.5 40v25q-47 -33 -105 -33q-37 0 -70 14t-57.5 38.5
t-39 57.5t-14.5 70v149zM104 176q0 -21 8.5 -40t22.5 -33.5t33.5 -22.5t40.5 -8t40 7.5t33 21t22.5 31.5t9.5 39v154q0 21 -8.5 40t-22.5 33.5t-33.5 22.5t-40.5 8q-22 0 -41 -8t-33.5 -22.5t-22.5 -33.5t-8 -40v-149z" />
    <glyph glyph-name="i" unicode="i" horiz-adv-x="177" 
d="M44 467q0 16 11 27t27 11q15 0 26.5 -11t11.5 -27v-433q0 -16 -11 -27t-27 -11q-15 0 -26.5 11t-11.5 27v433zM44 626q0 16 11 27t27 11q15 0 26.5 -11t11.5 -27v-29q0 -16 -11 -27t-27 -11q-15 0 -26.5 11t-11.5 27v29z" />
    <glyph glyph-name="r" unicode="r" horiz-adv-x="338" 
d="M101 462q25 23 54.5 32.5t67.5 9.5l17.5 -1.5t38 -7.5t37.5 -17.5t17 -32.5q0 -17 -11 -27.5t-27 -10.5q-13 0 -23 7q-26 14 -53 14q-44 0 -73.5 -29.5t-31.5 -71.5v-294q0 -16 -11 -27t-27 -11q-15 0 -26.5 11t-11.5 27v249q0 42 5.5 72t14.5 51t20.5 34.5t22.5 22.5z
" />
    <glyph glyph-name="m" unicode="m" horiz-adv-x="706" 
d="M44 325q0 37 12.5 70t35.5 57.5t54 38.5t69 14q42 0 76 -18t57 -47q23 29 57 47t76 18q37 0 68.5 -14t54 -38.5t35.5 -57.5t13 -70v-291q0 -16 -11.5 -27t-26.5 -11q-16 0 -27 11t-11 27v291q0 43 -26 73.5t-69 30.5q-45 0 -70 -30.5t-25 -73.5v-291q0 -16 -11.5 -27
t-26.5 -11q-16 0 -27 11t-11 27v291q0 43 -26 73.5t-69 30.5q-45 0 -70 -30.5t-25 -73.5v-291q0 -16 -11.5 -27t-26.5 -11q-16 0 -27 11t-11 27v291z" />
    <glyph glyph-name="t" unicode="t" horiz-adv-x="394" 
d="M112 48q-25 25 -39 57.5t-14 70.5v244h-16q-16 0 -27 11.5t-11 26.5q0 16 11 27t27 11h16v120q0 16 11 27t27 11q15 0 26.5 -11t11.5 -27v-120h158q16 0 27 -11t11 -27q0 -15 -11 -26.5t-27 -11.5h-158v-244q0 -15 6 -33.5t18.5 -34t32.5 -26t48 -10.5q46 0 78 35
q11 13 28 13q16 0 27.5 -11.5t11.5 -26.5q0 -13 -10 -25q-27 -31 -62.5 -46.5t-73.5 -15.5q-32 0 -62.5 11.5t-56.5 34.5z" />
    <glyph glyph-name="s" unicode="s" horiz-adv-x="440" 
d="M44 365q0 31 13 57t35.5 44.5t54 28.5t68.5 10q30 -1 58 -9q24 -7 49 -22.5t42 -43.5q7 -14 7 -24q0 -15 -10.5 -26t-25.5 -11q-18 0 -31 16q-19 23 -38 33.5t-51 10.5q-43 0 -69 -18.5t-26 -45.5q0 -36 25 -52.5t70 -16.5q37 0 70 -9.5t57.5 -28.5t39 -47t14.5 -65
q0 -38 -14.5 -66t-40 -47t-59 -28t-70.5 -9q-8 0 -29.5 2.5t-47.5 13.5t-52.5 33.5t-44.5 62.5q-3 7 -3 14q0 15 10.5 26.5t27.5 11.5q12 0 21 -6.5t14 -17.5q13 -30 44 -47t63 -17q21 0 40.5 3.5t33.5 12t22.5 23t8.5 35.5q0 43 -30.5 58.5t-74.5 15.5q-37 0 -68.5 7.5
t-54 25t-35.5 45t-13 67.5z" />
    <glyph glyph-name="l" unicode="l" horiz-adv-x="181" 
d="M46 616q0 16 11 27t27 11q15 0 26.5 -11t11.5 -27v-582q0 -16 -11 -27t-27 -11q-15 0 -26.5 11t-11.5 27v582z" />
    <glyph glyph-name="j" unicode="j" horiz-adv-x="200" 
d="M58 467q0 16 11.5 27t26.5 11q16 0 27 -11t11 -27v-463q0 -37 -14.5 -70t-39 -57.5t-57.5 -38.5t-70 -14q-16 0 -27 11t-11 27t11 27t27 11q21 0 39.5 8t33 21.5t23 31.5t9.5 39v467zM58 626q0 16 11 27t27 11q15 0 26.5 -11t11.5 -27v-29q0 -16 -11 -27t-27 -11
q-15 0 -26.5 11t-11.5 27v29z" />
    <glyph glyph-name="f" unicode="f" horiz-adv-x="345" 
d="M323 624q7 -5 10 -10q9 -13 6 -28.5t-16 -24.5q-21 -14 -42 1q-11 7 -23 11.5t-36 4.5q-21 0 -40.5 -8t-33.5 -22.5t-22.5 -33.5t-8.5 -40v-188h108q16 0 27 -11.5t11 -26.5q0 -16 -11 -27t-27 -11h-108v-176q0 -16 -11.5 -27t-26.5 -11q-16 0 -27 11t-11 27v440
q0 38 14.5 71t40 57t58.5 38t71 14q34 0 54.5 -8t43.5 -22z" />
    <glyph glyph-name="w" unicode="w" horiz-adv-x="706" 
d="M44 467q0 16 11.5 27t26.5 11q16 0 27 -11t11 -27v-291q0 -43 26 -73.5t69 -30.5q45 0 70 30.5t25 73.5v291q0 16 11.5 27t26.5 11q16 0 27 -11t11 -27v-291q0 -43 26 -73.5t69 -30.5q45 0 70 30.5t25 73.5v291q0 16 11.5 27t26.5 11q16 0 27 -11t11 -27v-291
q0 -37 -12.5 -70t-35.5 -57.5t-54.5 -38.5t-68.5 -14q-42 0 -76 18t-57 47q-23 -29 -57 -47t-76 -18q-37 0 -68.5 14t-54 38.5t-35.5 57.5t-13 70v291z" />
    <glyph glyph-name="v" unicode="v" horiz-adv-x="500" 
d="M28 452q-3 7 -3 15q0 14 10 26t27 12q11 0 20.5 -6t14.5 -17l148 -353l148 353q10 23 35 23q17 0 27 -12t10 -26q0 -8 -3 -15l-182 -433q-11 -23 -35 -23q-26 0 -35 23z" />
    <glyph glyph-name="k" unicode="k" horiz-adv-x="409" 
d="M34 616q0 16 11 27t27 11q15 0 26.5 -11t11.5 -27v-283l196 158q10 9 24 9t25.5 -10.5t11.5 -27.5q0 -18 -13 -30l-182 -146l223 -228q10 -10 10 -25q0 -14 -11 -25.5t-27 -11.5q-18 0 -30 13l-227 229v-204q0 -16 -11 -27t-27 -11q-15 0 -26.5 11t-11.5 27v582z" />
    <glyph glyph-name="x" unicode="x" horiz-adv-x="519" 
d="M53 443q-9 10 -9 24q0 15 11.5 26.5t28.5 11.5q8 0 15.5 -3t12.5 -10l143 -185l143 185q5 7 12.5 10t15.5 3q17 0 28 -11.5t11 -26.5q0 -6 -1.5 -12.5t-6.5 -11.5l-153 -196l153 -188q8 -9 8 -25q0 -14 -11 -26t-28 -12t-28 14l-143 176l-143 -176q-11 -14 -28 -14
t-28.5 12t-11.5 26t9 25l152 188z" />
    <glyph glyph-name="z" unicode="z" horiz-adv-x="470" 
d="M94 425q-16 0 -27 11t-11 27q0 15 11 26.5t27 11.5h271q20 0 34.5 -9t14.5 -27q0 -12 -6 -22l-255 -367h227q16 0 27 -11t11 -27q0 -15 -11 -26.5t-27 -11.5h-294q-21 0 -33.5 10.5t-12.5 26.5q0 12 7 22l254 366h-207z" />
    <glyph glyph-name="y" unicode="y" horiz-adv-x="437" 
d="M32 467q0 16 11 27t27 11q15 0 26.5 -11t11.5 -27v-295q0 -21 8 -40t22.5 -33.5t33.5 -22.5t41 -8q21 0 40.5 8t33.5 22.5t22.5 33.5t8.5 40v295q0 16 11 27t27 11q15 0 26.5 -11t11.5 -27v-142v-321q0 -38 -13 -70.5t-37 -57t-57.5 -38.5t-73.5 -14q-16 0 -27 11t-11 27
t11 27t27 11q21 0 40.5 8t33.5 22.5t22.5 33.5t8.5 40v25q-47 -33 -105 -33q-37 0 -70 14t-57.5 38.5t-39 57t-14.5 70.5v149v142z" />
    <glyph glyph-name="O" unicode="O" horiz-adv-x="565" 
d="M39 445q0 49 19 92t51 75.5t75.5 51t93.5 18.5q49 0 92 -18.5t75.5 -51t51.5 -75.5t19 -92v-230q0 -49 -19 -92t-51 -75.5t-75.5 -51t-92.5 -18.5t-92.5 18.5t-76 51t-51.5 75.5t-19 92v230zM115 215q0 -33 13 -62.5t35 -51t52 -34.5t63 -13q34 0 63.5 13t51.5 34.5
t34.5 51t12.5 62.5v230q0 33 -13 62.5t-35 51t-51.5 34.5t-62.5 13q-34 0 -64 -13t-52 -34.5t-34.5 -51t-12.5 -62.5v-230z" />
    <glyph glyph-name="Q" unicode="Q" horiz-adv-x="555" 
d="M401 14q-28 -18 -60 -28t-68 -10q-51 0 -95 20t-76 53t-50 75t-18 86v233q0 49 18.5 92t51 75.5t76 51t93.5 18.5q48 0 91.5 -18.5t76 -50.5t51.5 -75t19 -93v-233q0 -39 -14 -76.5t-40 -69.5l12 -12l12 -12q11 -11 11 -27t-11 -27t-26.5 -11t-26.5 11zM404 116
q14 20 22.5 44t8.5 50v233q0 33 -13 62.5t-35 51t-51.5 34.5t-62.5 13q-35 0 -64.5 -13t-51.5 -34.5t-34.5 -51t-12.5 -62.5v-233q0 -33 13 -62t35 -50t52 -33.5t63 -12.5q41 0 76 18q-7 23 9 40q9 8 21.5 10t23.5 -4h1z" />
    <glyph glyph-name="U" unicode="U" horiz-adv-x="571" 
d="M42 626q0 16 11 27t27 11q15 0 26.5 -11t11.5 -27v-411q0 -33 13 -62.5t35 -51t52 -34.5t63 -13q34 0 63.5 13t51.5 34.5t34.5 51t12.5 62.5v411q0 16 11 27t27 11q15 0 26.5 -11t11.5 -27v-411q0 -49 -19 -92t-51 -75.5t-75.5 -51t-92.5 -18.5t-92.5 18.5t-76 51
t-51.5 75.5t-19 92v411z" />
    <glyph glyph-name="N" unicode="N" horiz-adv-x="571" 
d="M42 427q0 49 19 92t51 75t75.5 51t92.5 19t92.5 -19t76 -51t51.5 -75t19 -92v-393q0 -16 -11 -27t-27 -11q-15 0 -26.5 11t-11.5 27v393q0 33 -13 62.5t-35 51t-52 34.5t-63 13q-34 0 -63.5 -13t-51.5 -34.5t-34.5 -51t-12.5 -62.5v-393q0 -16 -11 -27t-27 -11
q-15 0 -26.5 11t-11.5 27v393z" />
    <glyph glyph-name="I" unicode="I" horiz-adv-x="193" 
d="M55 626q0 16 11 27t27 11q15 0 26.5 -11t11.5 -27v-592q0 -16 -11 -27t-27 -11q-15 0 -26.5 11t-11.5 27v592z" />
    <glyph glyph-name="J" unicode="J" horiz-adv-x="286" 
d="M158 626q0 16 11.5 27t26.5 11q16 0 27 -11t11 -27v-468q0 -37 -14.5 -70t-39 -57.5t-57.5 -38.5t-70 -14q-16 0 -27 11t-11 27t11 27t27 11q21 0 39.5 8t33 21.5t23 31.5t9.5 39v472z" />
    <glyph glyph-name="M" unicode="M" horiz-adv-x="906" 
d="M44 427q0 49 17 92t47.5 75t72 51t90.5 19q60 0 104 -23.5t73 -62.5q32 38 74.5 62t101.5 24q49 0 91 -19t72.5 -51t47.5 -75t17 -92v-393q0 -16 -11.5 -27t-26.5 -11q-16 0 -27 11t-11 27v393q0 33 -11 62.5t-31 51t-48 34.5t-62 13q-33 0 -59 -13t-43.5 -34.5
t-26.5 -51t-9 -62.5v-393q0 -16 -11 -27t-27 -11t-27 11t-11 27v394q0 33 -9.5 62t-27 50.5t-43.5 34.5t-59 13t-61 -13t-48 -34.5t-31 -51t-11 -62.5v-393q0 -16 -11.5 -27t-26.5 -11q-16 0 -27 11t-11 27v393z" />
    <glyph glyph-name="C" unicode="C" horiz-adv-x="544" 
d="M40 445q0 49 19 92t51 75.5t75.5 51t93.5 18.5q36 0 69.5 -10.5t62 -30t50.5 -46t36 -59.5q2 -4 3.5 -9t1.5 -10q0 -14 -10 -26t-28 -12q-23 0 -34 22q-18 45 -59 75t-92 30q-34 0 -64 -13t-52 -34.5t-34.5 -51t-12.5 -62.5v-230q0 -33 13 -62.5t35 -51t52 -34.5t63 -13
q54 0 94 30.5t58 76.5q4 11 13.5 16t19.5 5q17 0 27.5 -12t10.5 -26q0 -8 -3 -15q-13 -35 -35 -62t-50.5 -47t-63 -31t-71.5 -11q-49 0 -92.5 18.5t-76 51t-51.5 75.5t-19 92v230z" />
    <glyph glyph-name="G" unicode="G" horiz-adv-x="560" 
d="M39 445q0 49 19 92t51 75.5t75.5 51t93.5 18.5q37 0 71 -11t62.5 -30.5t51 -46.5t35.5 -60q3 -8 3 -16q0 -14 -10 -26t-28 -12q-10 0 -19.5 5.5t-14.5 16.5q-19 45 -59.5 74.5t-91.5 29.5q-34 0 -64 -13t-52 -34.5t-34.5 -51t-12.5 -62.5v-230q0 -33 13 -62.5t35 -51
t52 -34.5t63 -13q34 0 63.5 13t51.5 34.5t34.5 51t12.5 62.5v67h-77q-16 0 -27 11t-11 27q0 15 11 26.5t27 11.5h115q16 0 27 -11t11 -27v-105q0 -49 -19 -92t-51 -75.5t-75.5 -51t-92.5 -18.5t-92.5 18.5t-76 51t-51.5 75.5t-19 92v230z" />
    <glyph glyph-name="T" unicode="T" horiz-adv-x="526" 
d="M58 584q-16 0 -27 11t-11 27q0 15 11 26.5t27 11.5h401q16 0 27 -11t11 -27q0 -15 -11 -26.5t-27 -11.5h-163v-550q0 -16 -11 -27t-27 -11q-15 0 -26.5 11t-11.5 27v550h-162z" />
    <glyph glyph-name="H" unicode="H" horiz-adv-x="580" 
d="M46 626q0 16 11.5 27t26.5 11q16 0 27 -11t11 -27v-268h325v268q0 16 11.5 27t26.5 11q16 0 27 -11t11 -27v-592q0 -16 -11.5 -27t-26.5 -11q-16 0 -27 11t-11 27v248h-325v-248q0 -16 -11.5 -27t-26.5 -11q-16 0 -27 11t-11 27v592z" />
    <glyph glyph-name="P" unicode="P" horiz-adv-x="551" 
d="M46 622q0 16 11 27t27 11h200h1q49 0 88.5 -11t67.5 -34t43.5 -57.5t15.5 -81.5q0 -98 -58 -149t-157 -51h-163v-242q0 -16 -11 -27t-27 -11q-15 0 -26.5 11t-11.5 27v588zM122 584v-232h163q69 0 104 29t35 95q0 59 -36.5 83.5t-102.5 24.5h-163z" />
    <glyph glyph-name="W" unicode="W" horiz-adv-x="906" 
d="M44 626q0 16 11.5 27t26.5 11q16 0 27 -11t11 -27v-411q0 -33 11 -62.5t31 -51t48 -34.5t62 -13q33 0 59 13t43.5 34.5t26.5 51t9 62.5v411q0 16 11 27t27 11t27 -11t11 -27v-412q0 -33 9.5 -62t27 -50.5t43.5 -34.5t59 -13t61 13t48 34.5t31 51t11 62.5v411
q0 16 11.5 27t26.5 11q16 0 27 -11t11 -27v-411q0 -49 -17 -92t-47.5 -75.5t-72 -51t-90.5 -18.5q-60 0 -104 23.5t-73 62.5q-32 -38 -74.5 -62t-101.5 -24q-49 0 -91 18.5t-72.5 51t-47.5 75.5t-17 92v411z" />
    <glyph glyph-name="E" unicode="E" horiz-adv-x="544" 
d="M46 622q0 16 11 27t27 11h371q16 0 27 -11t11 -27q0 -15 -11 -26.5t-27 -11.5h-333v-226h118q16 0 27 -11t11 -27q0 -15 -11 -26.5t-27 -11.5h-118v-206h333q16 0 27 -11t11 -27q0 -15 -11 -26.5t-27 -11.5h-371q-15 0 -26.5 11t-11.5 27v584z" />
    <glyph glyph-name="F" unicode="F" horiz-adv-x="535" 
d="M46 622q0 15 10.5 26t25.5 12h373q16 0 27 -11t11 -27q0 -15 -11 -26.5t-27 -11.5h-333v-226h118q16 0 27 -11t11 -27q0 -15 -11 -26.5t-27 -11.5h-118v-248q0 -16 -11 -27t-27 -11q-15 0 -26.5 11t-11.5 27v588z" />
    <glyph glyph-name="D" unicode="D" horiz-adv-x="571" 
d="M46 622q0 16 11 27t27 11h200q49 0 93 -18.5t76 -50.5t51 -74.5t19 -91.5v-190q0 -49 -19 -91.5t-51 -74.5t-75.5 -50.5t-92.5 -18.5h-201q-15 0 -26.5 11t-11.5 27v584zM122 584v-508h163q34 0 63.5 12.5t51.5 34t34.5 50.5t12.5 62v190q0 33 -12.5 62t-34.5 50.5
t-52 34t-64 12.5h-162z" />
    <glyph glyph-name="B" unicode="B" horiz-adv-x="490" 
d="M366 470q0 22 -8.5 42t-24 35t-37 23.5t-47.5 8.5h-125v-211h125q52 0 84.5 29t32.5 73zM44 620q0 13 10 26.5t33 13.5h162q46 0 82 -17t61.5 -44.5t39 -61t13.5 -66.5q0 -44 -16 -80t-46 -61q29 -29 45.5 -63t16.5 -76q0 -49 -16.5 -85t-44 -59.5t-63 -35t-72.5 -11.5
h-162q-17 0 -30 12.5t-13 26.5v581zM249 81q54 0 86 31t32 79q0 16 -7.5 33.5t-22 32.5t-36.5 25t-52 10h-125v-211h125z" />
    <glyph glyph-name="R" unicode="R" horiz-adv-x="548" 
d="M291 352q68 0 97.5 35.5t29.5 90.5t-36.5 80.5t-102.5 25.5h-163v-232h175zM279 660q45 0 84 -10t68 -32t46 -57t17 -84q0 -44 -13 -80.5t-39.5 -63.5t-67.5 -42t-97 -15h-19q57 -55 104 -101q20 -20 39.5 -39t35.5 -34.5t27.5 -26t14.5 -13.5q10 -11 10 -25
q2 -16 -8.5 -28t-26.5 -13h-4q-15 0 -28 13q-5 4 -18.5 18t-33 33.5t-42.5 43t-47 47.5q-55 56 -123 125h-42v-242q0 -16 -11 -27t-27 -11q-15 0 -26.5 11t-11.5 27v588q0 16 11 27t27 11h200h1z" />
    <glyph glyph-name="L" unicode="L" horiz-adv-x="527" 
d="M46 626q0 16 11 27t27 11q15 0 26.5 -11t11.5 -27v-550h333q16 0 27 -11t11 -27q0 -15 -11 -26.5t-27 -11.5h-371q-15 0 -26.5 11t-11.5 27v588z" />
    <glyph glyph-name="K" unicode="K" horiz-adv-x="494" 
d="M46 626q0 16 11 27t27 11q15 0 26.5 -11t11.5 -27v-233l256 249q11 9 24 8q14 -1 25.5 -12t9.5 -28q0 -17 -14 -29l-250 -251l283 -281q4 -5 7 -11.5t2 -13.5q0 -14 -11.5 -25t-27.5 -11q-8 0 -17 4.5t-17 16.5l-270 263v-238q0 -16 -11 -27t-27 -11q-15 0 -26.5 11
t-11.5 27v592z" />
    <glyph glyph-name="Y" unicode="Y" horiz-adv-x="547" 
d="M431 203q-30 -30 -71.5 -47.5t-92.5 -17.5q-35 0 -76.5 14t-77 42.5t-59.5 73t-24 106.5v254q0 15 11 26.5t27 11.5q15 0 26.5 -11t11.5 -27v-244q0 -33 11.5 -63.5t33 -54t51 -37.5t65.5 -14t66 13t52 34.5t34 51t12 62.5v252q0 16 11 27t27 11q15 0 26.5 -11t11.5 -27
v-474q0 -50 -16.5 -85t-45 -57.5t-67 -32.5t-82.5 -10q-16 0 -27 11t-11 27t11 27t27 11q25 0 49 5.5t43 17.5t31 31t12 46v58z" />
    <glyph glyph-name="X" unicode="X" horiz-adv-x="619" 
d="M52 602q-9 10 -9 24q0 15 11.5 26.5t28.5 11.5q8 0 15.5 -3t12.5 -10l194 -257l194 257q5 7 12.5 10t15.5 3q17 0 28 -11.5t11 -26.5q0 -6 -1.5 -12.5t-6.5 -11.5l-205 -271l205 -272q8 -9 8 -25q0 -14 -11 -26t-28 -12t-28 14l-194 258l-194 -258q-11 -14 -28 -14
t-28.5 12t-11.5 26t9 25l205 272z" />
    <glyph glyph-name="Z" unicode="Z" horiz-adv-x="573" 
d="M83 584q-16 0 -27 11t-11 27q0 15 11 26.5t27 11.5h391q20 0 34.5 -9t14.5 -27q0 -12 -6 -22l-371 -526h346q16 0 27 -11t11 -27q0 -15 -11 -26.5t-27 -11.5h-413q-21 0 -33.5 10.5t-12.5 26.5q0 12 7 22l370 525h-327z" />
    <glyph glyph-name="V" unicode="V" horiz-adv-x="638" 
d="M27 611q-3 7 -3 15q0 14 10 26t27 12q11 0 20.5 -6t14.5 -17l218 -512l218 512q10 23 35 23q17 0 27 -12t10 -26q0 -8 -3 -15l-252 -592q-6 -14 -20 -20q-8 -3 -15 -3q-25 0 -35 23z" />
    <glyph glyph-name="A" unicode="A" horiz-adv-x="629" 
d="M177 205l-80 -186q-11 -23 -35 -23q-17 0 -27 12t-10 25q0 8 3 16l252 592q11 23 35 23q7 0 15 -3q14 -6 20 -20l252 -592q3 -8 3 -16q0 -13 -10 -25t-27 -12q-24 0 -35 23l-79 186h-277zM422 283l-107 248l-108 -248h215z" />
    <glyph glyph-name="ampersand" unicode="&#x26;" horiz-adv-x="595" 
d="M515 171l61 -62q11 -11 11 -26.5t-11 -26.5t-27 -11t-27 11l-23 23l-38 38q-36 -36 -63 -58t-51.5 -34t-49.5 -16.5t-57 -5.5q-55 -2 -95 14.5t-66 44.5t-38.5 62t-12.5 66q0 73 41 121.5t115 85.5q-34 34 -53 69t-20 88q0 32 14.5 58.5t38.5 45t54.5 28t63.5 7.5
q36 -2 63.5 -13t45.5 -28t27.5 -38.5t10.5 -45.5t-2 -48t-15.5 -47.5t-37.5 -47.5t-68 -49l156 -153l50 52q11 11 27 11t27 -11t11 -26.5t-11 -26.5zM239 343q-25 -14 -48.5 -29t-41.5 -32.5t-28.5 -39t-10.5 -47.5t10.5 -48t28.5 -38t42.5 -25t51.5 -7q26 1 50.5 11.5
t45.5 25t38.5 30t30.5 27.5zM187 545q0 -21 6 -37.5t16 -30.5t21.5 -25.5l23.5 -23.5q28 17 48 31.5t33 29t19 30.5t5 36q-2 40 -25.5 54.5t-58.5 16.5q-19 1 -35 -5.5t-28 -17.5t-18.5 -26.5t-6.5 -31.5z" />
    <glyph glyph-name="zero" unicode="0" horiz-adv-x="492" 
d="M40 483q0 41 16 77t43 63t63.5 42.5t77.5 15.5q42 0 78.5 -15.5t63.5 -42.5t43 -63t16 -77v-305q0 -41 -16 -77t-43 -63t-63.5 -43t-78.5 -16q-41 0 -77.5 16t-63.5 43t-43 63t-16 77v305zM365 483q0 25 -10 48t-27 39.5t-39.5 26.5t-48.5 10t-48.5 -10t-39.5 -26.5
t-26.5 -39.5t-9.5 -48v-305q0 -26 10 -48t26.5 -39t39 -26.5t48.5 -9.5t49 9.5t40 26.5t26.5 39t9.5 48v305z" />
    <glyph glyph-name="eight" unicode="8" horiz-adv-x="467" 
d="M61 493q0 35 13.5 66t37 54.5t55 37t67.5 13.5t67.5 -13.5t55.5 -37t37.5 -54.5t13.5 -66v-1q0 -39 -16.5 -73.5t-45.5 -58.5q41 -26 65 -69.5t24 -94.5v-1q0 -41 -16 -77t-43 -63t-63.5 -43t-78.5 -16q-41 0 -77.5 16t-63.5 43t-43 63t-16 77v1q0 51 24 94.5t65 69.5
q-29 24 -45.5 58.5t-16.5 73.5v1zM234 320q-26 0 -48.5 -10t-39.5 -26.5t-26.5 -39.5t-9.5 -48v-1q0 -26 10 -48t26.5 -39t39 -26.5t48.5 -9.5t49 9.5t40 26.5t26.5 39t9.5 48v1q0 25 -9.5 47t-26 38.5t-38 27t-46.5 11.5h-5zM234 587q-20 0 -38 -7.5t-31 -21t-20.5 -31
t-7.5 -37.5t7.5 -37.5t21 -30.5t31 -20.5t37.5 -7.5q41 0 69 28t28 68q0 20 -7.5 37.5t-21 31t-31 21t-37.5 7.5z" />
    <glyph glyph-name="three" unicode="3" horiz-adv-x="476" 
d="M58 508q0 36 13.5 67.5t37 55t55 37t67.5 13.5t67.5 -14t55.5 -38t37.5 -56t13.5 -67v-1q0 -39 -16.5 -80.5t-45.5 -65.5q20 -13 36.5 -33.5t28 -44.5t18 -51t6.5 -52v-1q0 -41 -16 -77t-43 -63t-63.5 -43t-78.5 -16q-41 0 -77.5 16t-63.5 43t-43 63t-16 77q0 16 11 27
t27 11t27 -11t11 -27q0 -26 10 -48t26.5 -39t39 -26.5t48.5 -9.5t49 9.5t40 26.5t26.5 39t9.5 48v1q0 25 -9.5 50t-26 45t-39 32.5t-47.5 13.5h-3q-15 0 -26 11t-11 26t11 26t26 11h4q19 1 36 11t30 25.5t20 34.5t7 39t-7.5 38t-21 32t-31 22.5t-37.5 8.5t-38 -7.5t-31 -21
t-20.5 -31t-7.5 -36.5q0 -16 -11 -27t-27 -11t-27 11t-11 27z" />
    <glyph glyph-name="five" unicode="5" horiz-adv-x="480" 
d="M63 622q0 16 11 27t27 11h271q16 0 27 -11t11 -27t-11 -27t-27 -11h-233v-143q22 12 46.5 19t50.5 7q42 0 78.5 -16t63.5 -43t43 -63t16 -77v-90q0 -41 -16 -77t-43 -63t-63.5 -43t-78.5 -16q-41 0 -77.5 16t-63.5 43t-43 63t-16 77q0 16 11 27t27 11t27 -11t11 -27v-3
q0 -25 10 -47t27 -38t39.5 -25.5t47.5 -9.5q26 0 49 9.5t40 26.5t26.5 39t9.5 48v90q0 25 -9.5 47.5t-26.5 39.5t-40 26.5t-49 9.5q-31 0 -57 -13.5t-44 -36.5q-6 -7 -14.5 -14t-22.5 -7q-16 0 -25.5 10.5t-9.5 26.5v265z" />
    <glyph glyph-name="backslash" unicode="\" horiz-adv-x="452" 
d="M424 55q8 -12 6 -26t-15 -24.5t-30 -8.5q-7 1 -14 5t-12 12l-346 593q-7 10 -5 24q2 15 14 25.5t29 8.5q8 -2 15 -5.5t11 -11.5z" />
    <glyph glyph-name="underscore" unicode="_" horiz-adv-x="575" 
d="M82 -76q-16 0 -27 11.5t-11 26.5q0 16 11 27t27 11h401q16 0 27 -11.5t11 -26.5q0 -16 -11 -27t-27 -11h-401z" />
    <glyph glyph-name="S" unicode="S" horiz-adv-x="554" 
d="M112 147q18 -40 59.5 -66.5t98.5 -26.5q31 0 61 7t53 22t37 38.5t14 55.5t-13.5 58t-36.5 44t-52.5 27.5t-62.5 9.5q-46 0 -85.5 13t-68 38t-45 60.5t-16.5 79.5q0 83 58.5 129t156.5 46q2 0 23.5 -1.5t51.5 -11t61.5 -29.5t53.5 -57q2 -5 4.5 -11t2.5 -13
q0 -12 -10 -24.5t-27 -12.5q-19 0 -29 13q-13 15 -25.5 28t-27.5 22.5t-34 15t-45 5.5q-38 0 -64.5 -8.5t-43 -22t-23.5 -31.5t-7 -37q0 -27 11 -48t29.5 -36t44 -23t54.5 -8q49 0 93 -15t77 -43t52 -68t19 -89q0 -50 -19.5 -87.5t-53 -62.5t-78 -37t-94.5 -12q-10 0 -38 3
t-63 17.5t-70 44.5t-58 83q-4 9 -4 21q0 16 10 27t25 11t26.5 -10.5t17.5 -27.5z" />
    <glyph glyph-name="space" unicode=" " horiz-adv-x="240" 
 />
    <glyph glyph-name="fraction" unicode="&#x2044;" 
d="M361 647q4 8 11 11.5t15 5.5q17 2 29 -8.5t14 -25.5q2 -14 -5 -24l-346 -593q-5 -8 -12 -12t-14 -5q-17 -2 -30 8.5t-15 24.5t6 26z" />
    <glyph glyph-name="numbersign" unicode="#" horiz-adv-x="474" 
d="M93 626q0 16 11 27t27 11q15 0 26.5 -11t11.5 -27v-155h124v155q0 16 11 27t27 11q15 0 26.5 -11t11.5 -27v-155h26q16 0 27 -11t11 -27q0 -15 -11 -26.5t-27 -11.5h-26v-124h26q16 0 27 -11t11 -27q0 -15 -11 -26.5t-27 -11.5h-26v-161q0 -16 -11 -27t-27 -11
q-15 0 -26.5 11t-11.5 27v161h-124v-161q0 -16 -11 -27t-27 -11q-15 0 -26.5 11t-11.5 27v161h-23q-16 0 -27 11t-11 27q0 15 11 26.5t27 11.5h23v124h-23q-16 0 -27 11t-11 27q0 15 11 26.5t27 11.5h23v155zM169 395v-124h124v124h-124z" />
    <glyph glyph-name="quotesingle" unicode="'" horiz-adv-x="145" 
d="M35 637q0 15 10.5 25.5t25.5 10.5q14 0 25.5 -10.5t11.5 -25.5v-79q0 -16 -11 -26.5t-26 -10.5q-14 0 -25 10.5t-11 26.5v79z" />
    <glyph glyph-name="quotedbl" unicode="&#x22;" horiz-adv-x="280" 
d="M46 637q0 15 10.5 25.5t25.5 10.5q14 0 25.5 -10.5t11.5 -25.5v-79q0 -16 -11 -26.5t-26 -10.5q-14 0 -25 10.5t-11 26.5v79zM157 637q0 15 10.5 25.5t25.5 10.5q14 0 25 -10.5t11 -25.5v-79q0 -16 -10.5 -26.5t-25.5 -10.5q-14 0 -25 10.5t-11 26.5v79z" />
    <glyph glyph-name="hyphen" unicode="-" 
d="M82 244q-16 0 -27 11t-11 27q0 15 11 26.5t27 11.5h275q16 0 27 -11t11 -27q0 -15 -11 -26.5t-27 -11.5h-275z" />
    <glyph glyph-name="plus" unicode="+" horiz-adv-x="395" 
d="M154 419q0 16 11 27t27 11q15 0 26.5 -11t11.5 -27v-99h100q16 0 27 -11t11 -27q0 -15 -11 -26.5t-27 -11.5h-100v-100q0 -16 -11 -27t-27 -11q-15 0 -26.5 11t-11.5 27v100h-99q-16 0 -27 11t-11 27q0 15 11 26.5t27 11.5h99v99z" />
    <glyph glyph-name="asterisk" unicode="*" horiz-adv-x="417" 
d="M102 382q-5 7 -5 18q0 14 10 26.5t27 12.5q10 -1 19.5 -5.5t14.5 -13.5l36 -63l36 62q11 19 33 19q17 0 27 -11.5t10 -27.5q0 -10 -4 -18l-36 -61h71q16 0 27 -11t11 -27q0 -15 -11 -26.5t-27 -11.5h-72l36 -63q5 -10 5 -19q0 -14 -10 -26t-28 -12q-22 0 -33 19l-36 62
l-36 -62q-11 -19 -33 -19q-17 0 -27.5 11.5t-10.5 27.5q0 8 5 18l37 63h-72q-16 0 -27 11t-11 27q0 15 11 26.5t27 11.5h71z" />
    <glyph glyph-name="comma" unicode="," horiz-adv-x="144" 
d="M35 46q0 15 10.5 25.5t25.5 10.5q14 0 25.5 -10.5t11.5 -25.5v-79q0 -16 -11 -26.5t-26 -10.5q-14 0 -25 10.5t-11 26.5v79z" />
    <glyph glyph-name="period" unicode="." horiz-adv-x="158" 
d="M32 47q0 20 13.5 33t32.5 13q20 0 33 -13t13 -33q0 -19 -13 -32.5t-33 -13.5q-18 0 -32 13.5t-14 32.5z" />
    <glyph glyph-name="exclam" unicode="!" horiz-adv-x="180" 
d="M52 626q0 16 11.5 27t26.5 11q16 0 27 -11t11 -27v-422q0 -16 -11.5 -27t-26.5 -11q-16 0 -27 11t-11 27v422zM45 47q0 20 13.5 33t32.5 13q20 0 33 -13t13 -33q0 -19 -13 -32.5t-33 -13.5q-18 0 -32 13.5t-14 32.5z" />
    <glyph glyph-name="slash" unicode="/" horiz-adv-x="445" 
d="M361 647q4 8 11 11.5t15 5.5q17 2 29 -8.5t14 -25.5q2 -14 -5 -24l-346 -593q-5 -8 -12 -12t-14 -5q-17 -2 -30 8.5t-15 24.5t6 26z" />
    <glyph glyph-name="semicolon" unicode=";" horiz-adv-x="141" 
d="M23 440q0 20 13.5 33t32.5 13q20 0 33 -13t13 -33t-13 -33t-33 -13q-18 0 -32 13t-14 33zM33 46q0 15 10.5 25.5t25.5 10.5q14 0 25.5 -10.5t11.5 -25.5v-79q0 -16 -11 -26.5t-26 -10.5q-14 0 -25 10.5t-11 26.5v79z" />
    <glyph glyph-name="colon" unicode=":" horiz-adv-x="136" 
d="M17 338q0 22 15 36t35 14q22 0 36 -14t14 -36q0 -21 -13.5 -35.5t-36.5 -14.5q-20 0 -35 14.5t-15 35.5zM17 50q0 22 15 36t35 14q22 0 36 -14t14 -36q0 -20 -13.5 -35t-36.5 -15q-20 0 -35 15t-15 35z" />
    <glyph glyph-name="parenright" unicode=")" horiz-adv-x="293" 
d="M166 522q-1 21 -9.5 39t-23 31.5t-33 21.5t-39.5 8q-16 0 -27 11t-11 27t11 27t27 11q37 0 70 -14t57.5 -38.5t39 -57.5t14.5 -70v-554q0 -37 -14.5 -70t-39 -57.5t-57.5 -38.5t-70 -14q-16 0 -27 11t-11 27t11 27t27 11q21 0 39.5 8t33 21.5t23 31.5t9.5 39v562z" />
    <glyph glyph-name="parenleft" unicode="(" horiz-adv-x="292" 
d="M40 518q0 37 14.5 70t39 57.5t57.5 38.5t70 14q16 0 27 -11t11 -27t-11 -27t-27 -11q-21 0 -40 -8t-33 -21.5t-22.5 -31.5t-9.5 -39v-562q1 -21 9.5 -39t22.5 -31.5t33 -21.5t40 -8q16 0 27 -11t11 -27t-11 -27t-27 -11q-37 0 -70 14t-57.5 38.5t-39 57.5t-14.5 70v554z
" />
    <glyph glyph-name="equal" unicode="=" 
d="M82 128q-16 0 -27 11t-11 27q0 15 11 26.5t27 11.5h275q16 0 27 -11t11 -27q0 -15 -11 -26.5t-27 -11.5h-275zM82 291q-16 0 -27 11t-11 27q0 15 11 26.5t27 11.5h275q16 0 27 -11t11 -27q0 -15 -11 -26.5t-27 -11.5h-275z" />
    <glyph glyph-name="bar" unicode="|" horiz-adv-x="181" 
d="M46 660q0 16 11 27t27 11q15 0 26.5 -11t11.5 -27v-798q0 -16 -11 -27t-27 -11q-15 0 -26.5 11t-11.5 27v798z" />
    <glyph glyph-name="six" unicode="6" horiz-adv-x="486" 
d="M40 465q0 41 16 77t43 63t63.5 43t78.5 16q20 0 47 -6.5t51 -18.5t40.5 -28t16.5 -35q0 -16 -11 -27t-27 -11q-21 0 -32 16q-17 16 -39 25t-46 9q-26 0 -49 -9.5t-40 -26.5t-26.5 -39.5t-9.5 -47.5v-43q26 20 57.5 31.5t66.5 11.5q42 0 78.5 -15.5t63.5 -42.5t43 -63
t16 -77v-89q0 -41 -16 -77t-43 -63t-63.5 -43t-78.5 -16q-41 0 -77.5 16t-63.5 43t-43 63t-16 77v287zM116 178q0 -26 10 -48t26.5 -39t39 -26.5t48.5 -9.5t49 9.5t40 26.5t26.5 39t9.5 48v89q0 25 -10 48t-27 39.5t-39.5 26.5t-48.5 10t-48 -9.5t-38.5 -25.5t-26.5 -38
t-11 -46v-94z" />
    <glyph glyph-name="nine" unicode="9" horiz-adv-x="485" 
d="M34 465q0 41 16 77t43 63t63.5 43t78.5 16q41 0 77.5 -16t63.5 -43t43 -63t16 -77v-270q0 -41 -16 -77t-43 -63t-63.5 -43t-78.5 -16q-20 0 -47 6.5t-51 18.5t-40.5 28t-16.5 35q0 16 11 27t27 11q21 0 32 -16q17 -16 39 -25t46 -9q26 0 49 9.5t40 26.5t26.5 39t9.5 48
v43q-26 -20 -57.5 -31.5t-66.5 -11.5q-42 0 -78.5 15.5t-63.5 42.5t-43 63t-16 77v72zM110 393q0 -26 10 -48.5t27 -39t39.5 -26.5t48.5 -10q25 0 47.5 9.5t39 25.5t26.5 38t11 46v77q0 25 -10 47.5t-26.5 39.5t-39.5 26.5t-48 9.5q-26 0 -49 -9.5t-40 -26.5t-26.5 -39.5
t-9.5 -47.5v-72z" />
    <glyph glyph-name="two" unicode="2" horiz-adv-x="489" 
d="M362 483q0 25 -9.5 47.5t-26.5 39.5t-40 26.5t-49 9.5q-25 0 -47.5 -9.5t-39.5 -26t-27 -38t-10 -46.5q0 -16 -11 -27t-27 -11t-27 11t-11 27q0 40 16 75.5t43.5 62.5t64 42.5t76.5 15.5q42 0 78.5 -16t63.5 -43t43 -63t16 -77v-1q0 -36 -12 -68t-34 -58h1l-233 -280h250
q16 0 27 -11t11 -27t-11 -27t-27 -11h-335q-12 0 -21 6.5t-13.5 16.5t-3.5 20.5t9 19.5l288 342q11 14 19.5 35.5t8.5 41.5v1z" />
    <glyph glyph-name="one" unicode="1" horiz-adv-x="247" 
d="M130 657q10 7 22 7q15 0 26.5 -11t11.5 -27v-592q0 -16 -11 -27t-27 -11q-15 0 -26.5 11t-11.5 27v525l-43 -25q-11 -6 -20 -6q-14 0 -26 10.5t-12 27.5q0 10 4.5 19.5t14.5 14.5z" />
    <glyph glyph-name="less" unicode="&#x3c;" horiz-adv-x="285" 
d="M165 452q5 7 12.5 10t15.5 3q17 0 28 -11.5t11 -26.5q0 -6 -1.5 -12.5t-6.5 -11.5l-122 -159l122 -158q8 -9 8 -25q0 -14 -11 -26t-28 -12t-28 14l-141 184q-8 11 -8 22q0 14 9 26z" />
    <glyph glyph-name="greater" unicode="&#x3e;" horiz-adv-x="285" 
d="M52 403q-9 10 -9 24q0 15 11.5 26.5t28.5 11.5q8 0 15.5 -3t12.5 -10l141 -184q8 -11 8 -23q0 -13 -9 -25l-140 -183q-11 -14 -28 -14t-28.5 12t-11.5 26t9 25l122 159z" />
    <glyph glyph-name="question" unicode="?" horiz-adv-x="517" 
d="M181 227q0 16 11.5 27t26.5 11q3 0 6 -0.5t6 -0.5q39 0 71 14t55.5 37t36.5 52t13 59v1q0 33 -12.5 62.5t-34.5 51t-52 34.5t-64 13q-52 0 -92 -29.5t-59 -74.5q-5 -11 -14.5 -16.5t-20.5 -5.5q-17 0 -27 12t-10 26q0 8 3 16q13 33 35.5 60t51 46.5t62.5 30.5t71 11
q49 0 93 -18.5t76 -51t51 -75.5t19 -92v-1q0 -42 -16.5 -83.5t-46 -74.5t-71 -53.5t-92.5 -20.5v-1q0 -16 -11.5 -27t-26.5 -11q-16 0 -27 11t-11 27v34zM172 47q0 20 13.5 33t32.5 13q20 0 33 -13t13 -33q0 -19 -13 -32.5t-33 -13.5q-18 0 -32 13.5t-14 32.5z" />
    <glyph glyph-name="seven" unicode="7" horiz-adv-x="468" 
d="M75 660h327q16 0 29.5 -10.5t13.5 -27.5q0 -11 -6 -21l-334 -584q-5 -9 -14 -13t-18 -5q-16 0 -27.5 11.5t-11.5 26.5q0 10 6 21l301 526h-269q-16 0 -27 11t-11 27t11 27t27 11h3z" />
    <glyph glyph-name="four" unicode="4" horiz-adv-x="457" 
d="M376 282v-248q0 -16 -11 -27t-27 -11q-15 0 -26.5 11t-11.5 27v246h-232q-26 0 -38 17q-5 8 -5.5 23t-0.5 20v295q0 16 9.5 27t25.5 11q15 0 26.5 -11t11.5 -27v-277h203v277q0 16 11 27t27 11q15 0 26.5 -11t11.5 -27v-277h14q16 0 27 -11.5t11 -26.5q0 -16 -11 -27
t-27 -11h-14z" />
    <glyph glyph-name="bracketleft" unicode="[" horiz-adv-x="294" 
d="M46 720q0 16 11.5 27t26.5 11h143q16 0 27 -11.5t11 -26.5q0 -16 -11 -27t-27 -11h-105v-782h105q16 0 27 -11t11 -27q0 -15 -11 -26.5t-27 -11.5h-143q-15 0 -26.5 11t-11.5 27v858z" />
    <glyph glyph-name="bracketright" unicode="]" horiz-adv-x="294" 
d="M245 -139q0 -16 -11.5 -27t-26.5 -11h-143q-16 0 -27 11.5t-11 26.5q0 16 11 27t27 11h105v783h-105q-16 0 -27 11t-11 27q0 15 11 26.5t27 11.5h143q15 0 26.5 -11t11.5 -27v-859z" />
    <glyph glyph-name="asciicircum" unicode="^" horiz-adv-x="508" 
d="M226 652q11 8 22 8q14 0 26 -9l183 -140q7 -5 10 -12.5t3 -15.5q0 -17 -11.5 -28.5t-26.5 -11.5q-14 0 -24 9l-159 122l-158 -122q-11 -9 -25 -9t-26 11.5t-12 28.5t14 28z" />
    <glyph glyph-name="grave" unicode="`" horiz-adv-x="181" 
d="M32 607q-6 9 -6 20q0 15 11 26t28 11q21 0 32 -18l41 -71q5 -9 5 -20q0 -15 -10.5 -26t-27.5 -11q-22 0 -32 18z" />
    <glyph glyph-name="acute" unicode="&#xb4;" horiz-adv-x="181" 
d="M74 646q10 18 32 18q17 0 27.5 -11t10.5 -26q0 -13 -5 -20l-41 -71q-11 -18 -32 -18q-17 0 -28 11t-11 26q0 9 6 20z" />
    <glyph glyph-name="bullet" unicode="&#x2022;" horiz-adv-x="228" 
d="M35 320q0 31 21.5 52.5t52.5 21.5t52.5 -21.5t21.5 -52.5t-21.5 -52.5t-52.5 -21.5t-52.5 21.5t-21.5 52.5z" />
    <glyph glyph-name="braceleft" unicode="{" horiz-adv-x="366" 
d="M109 518q0 37 14.5 70t39 57.5t57.5 38.5t70 14q16 0 27 -11t11 -27t-11 -27t-27 -11q-21 0 -40 -8t-33 -21.5t-22.5 -31.5t-9.5 -39v-243q0 -14 -10 -25t-24 -13q14 -2 24 -13t10 -25v-243q1 -21 9.5 -39t22.5 -31.5t33 -21.5t40 -8q16 0 27 -11t11 -27t-11 -27t-27 -11
q-37 0 -70 14t-57.5 38.5t-39 57.5t-14.5 70v205q0 12 -11 23t-23 11h-20q-16 0 -27 11t-11 27q0 15 11 26.5t27 11.5h20q12 0 23 10.5t11 22.5v206z" />
    <glyph glyph-name="braceright" unicode="}" horiz-adv-x="366" 
d="M171 522q-1 21 -9.5 39t-23 31.5t-33 21.5t-39.5 8q-16 0 -27 11t-11 27t11 27t27 11q37 0 70 -14t57.5 -38.5t39 -57.5t14.5 -70v-206q0 -12 11 -22.5t23 -10.5h20q16 0 27 -11.5t11 -26.5q0 -16 -11 -27t-27 -11h-20q-12 0 -23 -11t-11 -23v-205q0 -37 -14.5 -70
t-39 -57.5t-57.5 -38.5t-70 -14q-16 0 -27 11t-11 27t11 27t27 11q21 0 39.5 8t33 21.5t23 31.5t9.5 39v243q0 14 10 25t24 13q-14 2 -24 13t-10 25v243z" />
    <glyph glyph-name="Euro" unicode="&#x20ac;" horiz-adv-x="561" 
d="M55 374q-16 0 -27 11t-11 27q0 15 11 26.5t27 11.5h16v2q0 45 19 87t51 74t75.5 51t93.5 19q36 0 69.5 -10.5t62 -30t50.5 -46t36 -59.5q5 -8 5 -19q0 -14 -10 -26t-28 -12q-24 0 -34 22q-18 45 -59 75t-92 30q-35 0 -64.5 -13t-51.5 -35t-34.5 -49.5t-12.5 -56.5v-3h166
q16 0 27 -11t11 -27q0 -15 -11 -26.5t-27 -11.5h-166v-72h167q16 0 27 -11t11 -27q0 -15 -11 -26.5t-27 -11.5h-167v-3q0 -35 13 -66t35 -53.5t52 -35.5t63 -13q54 0 94 30.5t58 76.5q4 11 13.5 16t19.5 5q17 0 27.5 -12t10.5 -26q0 -8 -3 -15q-26 -68 -85.5 -109.5
t-134.5 -41.5q-49 0 -92.5 18t-76 50.5t-51.5 77.5t-19 98v3h-15q-16 0 -27 12t-11 26t11 26t27 12h15v72h-16z" />
    <glyph glyph-name="sterling" unicode="&#xa3;" horiz-adv-x="564" 
d="M126 466q0 41 16 77t43 63t63.5 42.5t77.5 15.5q21 0 47.5 -6.5t50 -18t39 -26.5t15.5 -32q0 -16 -11 -27t-27 -11q-19 0 -31 15q-35 32 -83 32q-26 0 -48.5 -10t-39.5 -26.5t-26.5 -39.5t-9.5 -48v-141h153q16 0 27 -11t11 -27q0 -15 -11 -26.5t-27 -11.5h-153v-122
q47 -6 88 -38l18 -16q12 -11 29 -15.5t32 -4.5q23 0 45 9.5t38 29.5q10 13 29 13q17 0 27.5 -12t10.5 -26q0 -12 -8 -23q-27 -33 -64.5 -50t-77.5 -17q-29 1 -59 9.5t-54 30.5l-18 16q-12 11 -29 15.5t-32 4.5q-23 0 -45 -9.5t-38 -29.5q-11 -14 -29 -14q-17 0 -27.5 12.5
t-10.5 26.5t10.5 27t26 24.5t32.5 19.5t30 12v127h-46q-16 0 -27 11t-11 27q0 15 11 26.5t27 11.5h46v141z" />
    <glyph glyph-name="asciitilde" unicode="~" horiz-adv-x="565" 
d="M242 203q-12 11 -29 15.5t-32 4.5q-23 0 -45 -9.5t-38 -29.5q-11 -14 -29 -14q-17 0 -27.5 12.5t-10.5 26.5t8 23q27 33 64 50t77 17q30 0 59 -10t55 -30l18 -16q12 -11 29 -15.5t32 -4.5q23 0 45 9.5t38 29.5q10 13 29 13q17 0 27.5 -12t10.5 -26q0 -12 -8 -23
q-27 -33 -64.5 -50t-77.5 -17q-29 1 -59 9.5t-54 30.5z" />
    <glyph glyph-name="agrave" unicode="&#xe0;" horiz-adv-x="452" 
d="M47 196q0 37 14.5 69t39 55t57.5 36t70 13q25 0 44.5 -5.5t33.5 -11.5q16 -8 27 -17q-7 36 -25 57t-41.5 29.5t-47.5 6.5t-43 -12q-14 -8 -29 -3.5t-23 18.5t-3 29t19 23q35 23 81.5 24.5t88 -19t70.5 -62t29 -104.5v-147q0 -38 -14.5 -70.5t-39 -57t-57.5 -38.5t-70 -14
q-38 0 -70.5 14t-57.5 38.5t-39 57t-14 70.5v21zM123 175q0 -21 8 -40t22.5 -33.5t33.5 -22.5t41 -8q21 0 40.5 8t33.5 22.5t22.5 33.5t8.5 40v23q-2 42 -32 68.5t-73 26.5t-74 -27t-31 -70v-21zM140 647q-6 9 -6 20q0 15 11 26t28 11q21 0 32 -18l41 -71q5 -9 5 -20
q0 -15 -10.5 -26t-27.5 -11q-22 0 -32 18z" />
    <glyph glyph-name="aacute" unicode="&#xe1;" horiz-adv-x="452" 
d="M47 196q0 37 14.5 69t39 55t57.5 36t70 13q25 0 44.5 -5.5t33.5 -11.5q16 -8 27 -17q-7 36 -25 57t-41.5 29.5t-47.5 6.5t-43 -12q-14 -8 -29 -3.5t-23 18.5t-3 29t19 23q35 23 81.5 24.5t88 -19t70.5 -62t29 -104.5v-147q0 -38 -14.5 -70.5t-39 -57t-57.5 -38.5t-70 -14
q-38 0 -70.5 14t-57.5 38.5t-39 57t-14 70.5v21zM123 175q0 -21 8 -40t22.5 -33.5t33.5 -22.5t41 -8q21 0 40.5 8t33.5 22.5t22.5 33.5t8.5 40v23q-2 42 -32 68.5t-73 26.5t-74 -27t-31 -70v-21zM234 686q10 18 32 18q17 0 27.5 -11t10.5 -26q0 -13 -5 -20l-41 -71
q-11 -18 -32 -18q-17 0 -28 11t-11 26q0 9 6 20z" />
    <glyph glyph-name="quotesinglbase" unicode="&#x201a;" horiz-adv-x="194" 
d="M64 34q0 16 11.5 27t26.5 11q16 0 27 -11t11 -27v-79q0 -14 -11.5 -26t-25.5 -12h-40q-16 0 -27 11.5t-11 26.5q0 16 11 27t27 11h1v41z" />
    <glyph glyph-name="quoteleft" unicode="&#x2018;" horiz-adv-x="171" 
d="M44 634q0 16 11 27t27 11q15 0 26.5 -11t11.5 -27v-79q0 -16 -11 -27t-27 -11q-15 0 -26.5 11t-11.5 27v79z" />
    <glyph glyph-name="quotedblleft" unicode="&#x201c;" horiz-adv-x="280" 
d="M44 634q0 16 11 27t27 11q15 0 26.5 -11t11.5 -27v-79q0 -16 -11 -27t-27 -11q-15 0 -26.5 11t-11.5 27v79zM154 634q0 16 11 27t27 11q15 0 26.5 -11t11.5 -27v-79q0 -16 -11 -27t-27 -11q-15 0 -26.5 11t-11.5 27v79z" />
    <glyph glyph-name="quoteright" unicode="&#x2019;" horiz-adv-x="169" 
d="M44 634q0 16 11 27t27 11q15 0 26.5 -11t11.5 -27v-79q0 -16 -11 -27t-27 -11q-15 0 -26.5 11t-11.5 27v79z" />
    <glyph glyph-name="quotedblright" unicode="&#x201d;" horiz-adv-x="272" 
d="M44 634q0 16 11 27t27 11q15 0 26.5 -11t11.5 -27v-79q0 -16 -11 -27t-27 -11q-15 0 -26.5 11t-11.5 27v79zM154 634q0 16 11 27t27 11q15 0 26.5 -11t11.5 -27v-79q0 -16 -11 -27t-27 -11q-15 0 -26.5 11t-11.5 27v79z" />
    <glyph glyph-name="endash" unicode="&#x2013;" horiz-adv-x="489" 
d="M82 244q-16 0 -27 11t-11 27q0 15 11 26.5t27 11.5h315q16 0 27 -11t11 -27q0 -15 -11 -26.5t-27 -11.5h-315z" />
    <glyph glyph-name="emdash" unicode="&#x2014;" horiz-adv-x="609" 
d="M82 244q-16 0 -27 11t-11 27q0 15 11 26.5t27 11.5h435q16 0 27 -11t11 -27q0 -15 -11 -26.5t-27 -11.5h-435z" />
    <glyph glyph-name="circumflex" unicode="&#x2c6;" horiz-adv-x="283" 
d="M118 658q8 5 18 5q12 0 22 -7l66 -48q17 -12 17 -31q0 -16 -12.5 -27t-27.5 -11q-13 0 -21 7l-44 31l-43 -31q-10 -7 -21 -7q-16 0 -28 11t-12 27q0 19 17 31z" />
    <glyph glyph-name="caron" unicode="&#x2c7;" horiz-adv-x="281" 
d="M48 605q-17 12 -17 31q0 16 12 27t28 11q11 0 21 -7l43 -31l44 31q8 7 21 7q15 0 27.5 -11t12.5 -27q0 -19 -17 -31l-66 -48q-10 -7 -22 -7q-10 0 -18 5z" />
    <glyph glyph-name="ellipsis" unicode="&#x2026;" horiz-adv-x="429" 
d="M38 38q0 16 11 27t27 11q15 0 26.5 -11t11.5 -27t-11 -27t-27 -11q-15 0 -26.5 11t-11.5 27zM176 38q0 16 11 27t27 11q15 0 26.5 -11t11.5 -27t-11 -27t-27 -11q-15 0 -26.5 11t-11.5 27zM314 38q0 16 11 27t27 11q15 0 26.5 -11t11.5 -27t-11 -27t-27 -11
q-15 0 -26.5 11t-11.5 27z" />
    <glyph glyph-name="quotedblbase" unicode="&#x201e;" horiz-adv-x="285" 
d="M44 34q0 16 11 27t27 11q15 0 26.5 -11t11.5 -27v-79q0 -16 -11 -27t-27 -11q-15 0 -26.5 11t-11.5 27v79zM154 34q0 16 11 27t27 11q15 0 26.5 -11t11.5 -27v-79q0 -16 -11 -27t-27 -11q-15 0 -26.5 11t-11.5 27v79z" />
    <glyph glyph-name="cent" unicode="&#xa2;" horiz-adv-x="413" 
d="M172 535q0 16 11 27t27 11q15 0 26.5 -11t11.5 -27v-39q15 -3 32.5 -9t35 -18.5t33.5 -32t28 -48.5q3 -8 3 -14q0 -16 -11 -27t-27 -11q-25 0 -35 24q-8 20 -24.5 34t-34.5 22v-337q19 8 34.5 22t24.5 35q5 11 14 17.5t21 6.5q16 0 27 -11.5t11 -26.5q0 -7 -3 -14
q-12 -28 -28.5 -47.5t-34 -32t-35 -19t-31.5 -9.5v-48q0 -16 -11 -27t-27 -11q-15 0 -26.5 11t-11.5 27v48q-30 6 -56.5 22.5t-45.5 39.5t-30 52.5t-11 61.5v144q0 32 11 61t30 52.5t45.5 39.5t56.5 23v39zM172 417q-30 -11 -48.5 -37.5t-18.5 -59.5v-144q0 -33 19 -59.5
t48 -37.5v338z" />
    <glyph glyph-name="brokenbar" unicode="&#xa6;" horiz-adv-x="181" 
d="M46 185q0 16 11 27t27 11q15 0 26.5 -11t11.5 -27v-323q0 -16 -11 -27t-27 -11q-15 0 -26.5 11t-11.5 27v323zM46 625q0 16 11 27t27 11q15 0 26.5 -11t11.5 -27v-323q0 -16 -11 -27t-27 -11q-15 0 -26.5 11t-11.5 27v323z" />
    <glyph glyph-name="yen" unicode="&#xa5;" horiz-adv-x="553" 
d="M33 626q0 16 11 27t27 11q15 0 26.5 -11t11.5 -27v-119q0 -33 13 -62.5t35 -51t52 -34.5t63 -13q34 0 63.5 13t51.5 34.5t34.5 51t12.5 62.5v119q0 16 11 27t27 11q15 0 26.5 -11t11.5 -27v-119q0 -44 -15.5 -83.5t-42.5 -70.5t-63.5 -52t-78.5 -28v-26h99q16 0 27 -11
t11 -27q0 -15 -11 -26.5t-27 -11.5h-99v-27h99q16 0 27 -11t11 -27q0 -15 -11 -26.5t-27 -11.5h-99v-34q0 -16 -11 -27t-27 -11q-15 0 -26.5 11t-11.5 27v34h-100q-16 0 -27 11t-11 27q0 15 11 26.5t27 11.5h100v27h-100q-16 0 -27 11t-11 27q0 15 11 26.5t27 11.5h100v26
q-42 7 -79 28t-64 52t-42.5 70.5t-15.5 83.5v119z" />
    <glyph glyph-name="tilde" unicode="&#x2dc;" horiz-adv-x="354" 
d="M41 610q0 15 10.5 25t25 15.5t30.5 8t28 2.5q14 0 31 -6t39 -6q18 0 28.5 2t16.5 4t9.5 4t6.5 2q15 0 26.5 -11t11.5 -27q0 -15 -10.5 -24.5t-25 -15t-30.5 -8t-27 -2.5q-25 0 -56 10q-5 1 -15 1q-18 0 -28.5 -1.5t-16.5 -4t-9 -4t-6 -1.5q-15 0 -27 11t-12 26z" />
    <glyph glyph-name="dotaccent" unicode="&#x2d9;" horiz-adv-x="157" 
d="M35 621q0 16 11 27t27 11q15 0 26.5 -11t11.5 -27t-11 -27t-27 -11q-15 0 -26.5 11t-11.5 27z" />
    <glyph glyph-name="dieresis" unicode="&#xa8;" horiz-adv-x="279" 
d="M41 628q0 16 11 27t27 11q15 0 26.5 -11t11.5 -27t-11 -27t-27 -11q-15 0 -26.5 11t-11.5 27zM151 628q0 16 11 27t27 11q15 0 26.5 -11t11.5 -27t-11 -27t-27 -11q-15 0 -26.5 11t-11.5 27z" />
    <glyph glyph-name="guillemotleft" unicode="&#xab;" horiz-adv-x="445" 
d="M174 452q5 7 12.5 10t15.5 3q17 0 28 -11.5t11 -26.5q0 -6 -1.5 -12.5t-6.5 -11.5l-122 -159l122 -158q8 -9 8 -25q0 -14 -11 -26t-28 -12t-28 14l-141 184q-8 11 -8 22q0 14 9 26zM324 452q5 7 12.5 10t15.5 3q17 0 28 -11.5t11 -26.5q0 -6 -1.5 -12.5t-6.5 -11.5
l-122 -159l122 -158q8 -9 8 -25q0 -14 -11 -26t-28 -12t-28 14l-141 184q-8 11 -8 22q0 14 9 26z" />
    <glyph glyph-name="guillemotright" unicode="&#xbb;" horiz-adv-x="446" 
d="M203 403q-9 10 -9 24q0 15 11.5 26.5t28.5 11.5q8 0 15.5 -3t12.5 -10l140 -183q9 -12 9 -26q0 -11 -8 -22l-141 -184q-11 -14 -28 -14t-28.5 12t-11.5 26t9 25l122 158zM53 403q-9 10 -9 24q0 15 11.5 26.5t28.5 11.5q8 0 15.5 -3t12.5 -10l140 -183q9 -12 9 -26
q0 -11 -8 -22l-141 -184q-11 -14 -28 -14t-28.5 12t-11.5 26t9 25l122 158z" />
    <glyph glyph-name="minus" unicode="&#x2212;" 
d="M82 244q-16 0 -27 11t-11 27q0 15 11 26.5t27 11.5h275q16 0 27 -11t11 -27q0 -15 -11 -26.5t-27 -11.5h-275z" />
    <glyph glyph-name="oe" unicode="&#x153;" horiz-adv-x="739" 
d="M45 325q0 37 14 70t39 57.5t57.5 38.5t70.5 14q37 0 70 -14t57.5 -38.5t39 -57.5t14.5 -70v-149q0 -37 -14 -70t-39 -57.5t-58 -38.5t-70 -14t-70 14t-57.5 38.5t-39 57.5t-14.5 70v149zM121 176q0 -21 8.5 -40t22.5 -33.5t33.5 -22.5t40.5 -8q22 0 41 8t33.5 22.5
t22.5 33.5t8 40v149q0 21 -8.5 40t-22.5 33.5t-33.5 22.5t-40.5 8q-22 0 -41 -8t-33.5 -22.5t-22.5 -33.5t-8 -40v-149zM331 325q0 37 14 70t39 57.5t57.5 38.5t70.5 14q37 0 70 -14t57.5 -38.5t39 -57.5t14.5 -70v-77q0 -16 -11 -27t-27 -11h-248v-34q0 -21 8.5 -40
t22.5 -33.5t33.5 -22.5t40.5 -8q32 0 57.5 16.5t38.5 44.5l1 3q4 11 13.5 17.5t21.5 6.5q16 0 27 -11.5t11 -26.5q0 -7 -5 -18q-21 -48 -65 -78t-100 -30q-37 0 -70 14t-57.5 38.5t-39 57.5t-14.5 70v149zM407 286h210v39q0 21 -8.5 40t-22.5 33.5t-33.5 22.5t-40.5 8
q-22 0 -41 -8t-33.5 -22.5t-22.5 -33.5t-8 -40v-39z" />
    <glyph glyph-name="OE" unicode="&#x152;" horiz-adv-x="954" 
d="M42 445q0 49 19 92t51 75.5t75.5 51t93.5 18.5q49 0 92 -18.5t75.5 -51t51.5 -75.5t19 -92v-230q0 -49 -19 -92t-51 -75.5t-75.5 -51t-92.5 -18.5t-92.5 18.5t-76 51t-51.5 75.5t-19 92v230zM118 215q0 -33 13 -62.5t35 -51t52 -34.5t63 -13q34 0 63.5 13t51.5 34.5
t34.5 51t12.5 62.5v230q0 33 -13 62.5t-35 51t-51.5 34.5t-62.5 13q-34 0 -64 -13t-52 -34.5t-34.5 -51t-12.5 -62.5v-230zM442 622q0 16 11 27t27 11h371q16 0 27 -11t11 -27q0 -15 -11 -26.5t-27 -11.5h-333v-226h118q16 0 27 -11t11 -27q0 -15 -11 -26.5t-27 -11.5h-118
v-206h333q16 0 27 -11t11 -27q0 -15 -11 -26.5t-27 -11.5h-371q-15 0 -26.5 11t-11.5 27v584z" />
    <glyph glyph-name="dollar" unicode="$" horiz-adv-x="537" 
d="M223 708q0 16 11 27t27 11q15 0 26.5 -11t11.5 -27v-48q16 -3 36.5 -8.5t41.5 -16.5t40.5 -28t34.5 -42q2 -5 4.5 -11t2.5 -13q0 -12 -10 -24.5t-27 -12.5q-19 0 -29 13q-20 23 -41 41t-53 26v-193q43 -5 80.5 -19.5t65 -39t43 -59t15.5 -78.5q0 -45 -15.5 -79.5
t-43 -59.5t-65 -39.5t-80.5 -18.5v-53q0 -16 -11 -27t-27 -11q-15 0 -26.5 11t-11.5 27v54q-20 3 -46 10.5t-53 24t-52 43t-43 67.5q-4 9 -4 21q0 16 10 27t25 11q16 0 26.5 -11t17.5 -27q14 -34 45.5 -58t73.5 -32v244q-39 4 -71 16t-55.5 33t-36.5 51.5t-13 69.5
q0 74 47.5 119t128.5 54v46zM299 74q26 4 49 13t40.5 23.5t28 35.5t10.5 49q0 27 -10 48t-27.5 35.5t-40.5 23.5t-50 12v-240zM223 585q-55 -8 -77.5 -35.5t-22.5 -60.5q0 -45 28 -66.5t72 -27.5v190z" />
    <glyph glyph-name="guilsinglleft" unicode="&#x2039;" horiz-adv-x="286" 
d="M165 432q5 7 12.5 10t15.5 3q17 0 28 -11.5t11 -26.5q0 -6 -1.5 -12.5t-6.5 -11.5l-122 -139l122 -138q8 -9 8 -25q0 -14 -11 -26t-28 -12t-28 14l-141 164q-8 11 -8 22q0 14 9 26z" />
    <glyph glyph-name="guilsinglright" unicode="&#x203a;" horiz-adv-x="285" 
d="M52 383q-9 10 -9 24q0 15 11.5 26.5t28.5 11.5q8 0 15.5 -3t12.5 -10l140 -163q9 -12 9 -26q0 -11 -8 -22l-141 -164q-11 -14 -28 -14t-28.5 12t-11.5 26t9 25l122 138z" />
    <glyph glyph-name="dagger" unicode="&#x2020;" horiz-adv-x="389" 
d="M151 626q0 16 11 27t27 11q15 0 26.5 -11t11.5 -27v-305h100q16 0 27 -11t11 -27q0 -15 -11 -26.5t-27 -11.5h-100v-383q0 -16 -11 -27t-27 -11q-15 0 -26.5 11t-11.5 27v383h-99q-16 0 -27 11t-11 27q0 15 11 26.5t27 11.5h99v305z" />
    <glyph glyph-name="daggerdbl" unicode="&#x2021;" horiz-adv-x="393" 
d="M153 625q0 16 11 27t27 11q15 0 26.5 -11t11.5 -27v-228h100q16 0 27 -11t11 -27q0 -15 -11 -26.5t-27 -11.5h-100v-77h100q16 0 27 -11t11 -27q0 -15 -11 -26.5t-27 -11.5h-100v-306q0 -16 -11 -27t-27 -11q-15 0 -26.5 11t-11.5 27v306h-99q-16 0 -27 11t-11 27
q0 15 11 26.5t27 11.5h99v77h-99q-16 0 -27 11t-11 27q0 15 11 26.5t27 11.5h99v228z" />
    <glyph glyph-name="mu" unicode="&#xb5;" horiz-adv-x="444" 
d="M46 458q0 16 11 27t27 11q15 0 26.5 -11t11.5 -27v-282q0 -21 8 -40t22.5 -33.5t33.5 -22.5t41 -8q21 0 40.5 8t33.5 22.5t22.5 33.5t8.5 40v282q0 16 11 27t27 11q15 0 26.5 -11t11.5 -27v-282q0 -37 -14.5 -70t-39 -57.5t-57.5 -38.5t-70 -14q-29 0 -56 8.5t-49 24.5
v-135q0 -16 -11.5 -27t-26.5 -11q-16 0 -27 11t-11 27v282v282z" />
    <glyph glyph-name="periodcentered" unicode="&#xb7;" horiz-adv-x="158" 
d="M36 268q0 16 11 27t27 11q15 0 26.5 -11t11.5 -27t-11 -27t-27 -11q-15 0 -26.5 11t-11.5 27z" />
    <glyph glyph-name="questiondown" unicode="&#xbf;" horiz-adv-x="522" 
d="M307.925 436.894q0 -15.9961 -11.4971 -26.9932q-11.4971 -10.998 -26.4941 -10.998q-2.99902 0 -5.99805 0.5t-5.99805 0.5q-38.9912 0 -70.9834 -13.9961q-31.9922 -13.9971 -55.4863 -36.9912q-23.4941 -22.9951 -36.4912 -51.9873
q-12.9961 -28.9932 -12.9961 -58.9863v-0.999023q0 -32.9922 12.4961 -62.4854q12.4971 -29.4922 34.4922 -50.9873q21.9941 -21.4951 51.9873 -34.4912q29.9922 -12.9971 63.9844 -12.9971q51.9873 0 91.9775 29.4932q39.9902 29.4922 58.9854 74.4814
q4.99902 10.9971 14.4961 16.4961q9.49805 5.49902 20.4951 5.49902q16.9961 0 26.9941 -11.998q9.99707 -11.9961 9.99707 -25.9932q0 -7.99805 -2.99902 -15.9961q-12.9971 -32.9922 -35.4912 -59.9854q-22.4951 -26.9932 -50.9883 -46.4883
q-28.4932 -19.4961 -62.4844 -30.4932t-70.9824 -10.9971q-48.9883 0 -92.9775 18.4951q-43.9893 18.4961 -75.9814 50.9883q-31.9922 32.4912 -50.9873 75.4814q-18.9961 42.9893 -18.9961 91.9775v0.999023q0 41.9902 16.4961 83.4805q16.4961 41.4893 45.9893 74.4814
t70.9824 53.4873q41.4902 20.4941 92.4775 20.4941v1q0 15.9961 11.4971 26.9941q11.4971 10.9971 26.4932 10.9971q15.9961 0 26.9941 -10.9971q10.9971 -10.998 10.9971 -26.9941v-33.9912zM316.923 616.85q0 -19.9951 -13.4971 -32.9922
q-13.4961 -12.9971 -32.4922 -12.9971q-19.9951 0 -32.9922 12.9971q-12.9961 12.9971 -12.9961 32.9922q0 18.9951 12.9961 32.4922q12.9971 13.4961 32.9922 13.4961q17.9961 0 31.9922 -13.4961q13.9971 -13.4971 13.9971 -32.4922z" />
    <glyph glyph-name="exclamdown" unicode="&#xa1;" horiz-adv-x="177" 
d="M83.9795 37.9902q0 -15.9961 -11.4971 -26.9932t-26.4941 -10.9971q-15.9961 0 -26.9932 10.9971t-10.9971 26.9932v421.897q0 15.9961 11.4971 26.9932q11.4971 10.998 26.4932 10.998q15.9961 0 26.9941 -10.998q10.9971 -10.9971 10.9971 -26.9932v-421.897z
M90.9775 616.85q0 -19.9951 -13.4961 -32.9922q-13.4971 -12.9971 -32.4922 -12.9971q-19.9951 0 -32.9922 12.9971t-12.9971 32.9922q0 18.9951 12.9971 32.4922q12.9971 13.4961 32.9922 13.4961q17.9951 0 31.9922 -13.4961q13.9961 -13.4971 13.9961 -32.4922z" />
    <glyph glyph-name="hungarumlaut" unicode="&#x2dd;" horiz-adv-x="311" 
d="M83 646q10 18 32 18q17 0 27.5 -11t10.5 -26q0 -13 -5 -20l-41 -71q-11 -18 -32 -18q-17 0 -28 11t-11 26q0 9 6 20zM196 646q10 18 32 18q17 0 27.5 -11t10.5 -26q0 -13 -5 -20l-41 -71q-11 -18 -32 -18q-17 0 -28 11t-11 26q0 9 6 20z" />
    <glyph glyph-name="plusminus" unicode="&#xb1;" horiz-adv-x="417" 
d="M165 459q0 16 11 27t27 11q15 0 26.5 -11t11.5 -27v-99h100q16 0 27 -11t11 -27q0 -15 -11 -26.5t-27 -11.5h-100v-100q0 -16 -11 -27t-27 -11q-15 0 -26.5 11t-11.5 27v100h-99q-16 0 -27 11t-11 27q0 15 11 26.5t27 11.5h99v99zM66 44q-16 0 -27 11t-11 27
q0 15 11 26.5t27 11.5h275q16 0 27 -11t11 -27q0 -15 -11 -26.5t-27 -11.5h-275z" />
    <glyph glyph-name="degree" unicode="&#xb0;" horiz-adv-x="304" 
d="M35 551q0 23 9 43.5t24 35.5t35.5 24t43.5 9t43.5 -9t35.5 -24t24 -35.5t9 -43.5t-9 -43.5t-24 -35.5t-35.5 -24t-43.5 -9t-43.5 9t-35.5 24t-24 35.5t-9 43.5zM112 551q0 -14 10.5 -24.5t24.5 -10.5t24.5 10.5t10.5 24.5t-10.5 24.5t-24.5 10.5t-24.5 -10.5t-10.5 -24.5
z" />
    <glyph glyph-name="ring" unicode="&#x2da;" horiz-adv-x="257" 
d="M123 707q37 0 63 -26t26 -63q0 -18 -7 -34t-19 -28t-28.5 -19t-34.5 -7t-34 7t-28 19t-19 28t-7 34t7 34.5t19 28.5t28 19t34 7zM88 618q0 -14 10.5 -24.5t24.5 -10.5t24.5 10.5t10.5 24.5t-10.5 24.5t-24.5 10.5t-24.5 -10.5t-10.5 -24.5z" />
    <glyph glyph-name="at" unicode="@" horiz-adv-x="557" 
d="M277 -34q-50 0 -93.5 18.5t-75.5 50.5t-51 75t-19 93v86q0 50 18.5 93t51 75t76 50.5t93.5 18.5q49 0 92.5 -18.5t75.5 -50.5t51 -75t19 -93v-86q0 -15 -5.5 -34.5t-17 -36.5t-30.5 -28.5t-46 -11.5h-141q-23 0 -42.5 9t-34.5 24.5t-23.5 36t-8.5 43.5v83q0 23 9 43.5
t24 35.5t35 24t43 9t43.5 -9t35.5 -24t24 -35.5t9 -43.5v-83q0 -2 -1 -8.5t-3 -14.5q-1 -1 -1 -4q-2 -5 -2.5 -9t-2.5 -7h37q19 0 24 14.5t5 26.5v86q0 34 -13.5 64.5t-36.5 53.5t-53.5 36.5t-64.5 13.5q-36 0 -67 -13.5t-53.5 -36.5t-35.5 -53.5t-13 -64.5v-86
q0 -34 13.5 -64.5t37 -53.5t54 -36.5t64.5 -13.5l19 1q15 0 25 -9.5t10 -24.5q0 -13 -9 -22.5t-24 -12.5zM320 288q0 17 -13 28.5t-30 11.5q-16 0 -29 -11.5t-13 -28.5v-83q0 -17 11.5 -30t30.5 -13q17 0 30 13t13 30v83z" />
    <glyph glyph-name="scaron" unicode="&#x161;" horiz-adv-x="441" 
d="M44 365q0 31 13 57t35.5 44.5t54 28.5t68.5 10q30 -1 58 -9q24 -7 49 -22.5t42 -43.5q7 -14 7 -24q0 -15 -10.5 -26t-25.5 -11q-18 0 -31 16q-19 23 -38 33.5t-51 10.5q-43 0 -69 -18.5t-26 -45.5q0 -36 25 -52.5t70 -16.5q37 0 70 -9.5t57.5 -28.5t39 -47t14.5 -65
q0 -38 -14.5 -66t-40 -47t-59 -28t-70.5 -9q-8 0 -29.5 2.5t-47.5 13.5t-52.5 33.5t-44.5 62.5q-3 7 -3 14q0 15 10.5 26.5t27.5 11.5q12 0 21 -6.5t14 -17.5q13 -30 44 -47t63 -17q21 0 40.5 3.5t33.5 12t22.5 23t8.5 35.5q0 43 -30.5 58.5t-74.5 15.5q-37 0 -68.5 7.5
t-54 25t-35.5 45t-13 67.5zM126 605q-17 12 -17 31q0 16 12 27t28 11q11 0 21 -7l43 -31l44 31q8 7 21 7q15 0 27.5 -11t12.5 -27q0 -19 -17 -31l-66 -48q-10 -7 -22 -7q-10 0 -18 5z" />
    <glyph glyph-name="Ydieresis" unicode="&#x178;" horiz-adv-x="547" 
d="M431 203q-30 -30 -71.5 -47.5t-92.5 -17.5q-35 0 -76.5 14t-77 42.5t-59.5 73t-24 106.5v254q0 15 11 26.5t27 11.5q15 0 26.5 -11t11.5 -27v-244q0 -33 11.5 -63.5t33 -54t51 -37.5t65.5 -14t66 13t52 34.5t34 51t12 62.5v252q0 16 11 27t27 11q15 0 26.5 -11t11.5 -27
v-474q0 -50 -16.5 -85t-45 -57.5t-67 -32.5t-82.5 -10q-16 0 -27 11t-11 27t11 27t27 11q25 0 49 5.5t43 17.5t31 31t12 46v58zM174 796q0 16 11 27t27 11q15 0 26.5 -11t11.5 -27t-11 -27t-27 -11q-15 0 -26.5 11t-11.5 27zM284 796q0 16 11 27t27 11q15 0 26.5 -11
t11.5 -27t-11 -27t-27 -11q-15 0 -26.5 11t-11.5 27z" />
    <glyph glyph-name="Agrave" unicode="&#xc0;" horiz-adv-x="648" 
d="M177 205l-80 -186q-11 -23 -35 -23q-17 0 -27 12t-10 25q0 8 3 16l252 592q11 23 35 23q7 0 15 -3q14 -6 20 -20l252 -592q3 -8 3 -16q0 -13 -10 -25t-27 -12q-24 0 -35 23l-79 186h-277zM422 283l-107 248l-108 -248h215zM233 817q-6 9 -6 20q0 15 11 26t28 11
q21 0 32 -18l41 -71q5 -9 5 -20q0 -15 -10.5 -26t-27.5 -11q-22 0 -32 18z" />
    <glyph glyph-name="Aacute" unicode="&#xc1;" horiz-adv-x="648" 
d="M177 205l-80 -186q-11 -23 -35 -23q-17 0 -27 12t-10 25q0 8 3 16l252 592q11 23 35 23q7 0 15 -3q14 -6 20 -20l252 -592q3 -8 3 -16q0 -13 -10 -25t-27 -12q-24 0 -35 23l-79 186h-277zM422 283l-107 248l-108 -248h215zM333 856q10 18 32 18q17 0 27.5 -11t10.5 -26
q0 -13 -5 -20l-41 -71q-11 -18 -32 -18q-17 0 -28 11t-11 26q0 9 6 20z" />
    <glyph glyph-name="Acircumflex" unicode="&#xc2;" horiz-adv-x="648" 
d="M177 205l-80 -186q-11 -23 -35 -23q-17 0 -27 12t-10 25q0 8 3 16l252 592q11 23 35 23q7 0 15 -3q14 -6 20 -20l252 -592q3 -8 3 -16q0 -13 -10 -25t-27 -12q-24 0 -35 23l-79 186h-277zM422 283l-107 248l-108 -248h215zM298 826q8 5 18 5q12 0 22 -7l66 -48
q17 -12 17 -31q0 -16 -12.5 -27t-27.5 -11q-13 0 -21 7l-44 31l-43 -31q-10 -7 -21 -7q-16 0 -28 11t-12 27q0 19 17 31z" />
    <glyph glyph-name="Atilde" unicode="&#xc3;" horiz-adv-x="648" 
d="M177 205l-80 -186q-11 -23 -35 -23q-17 0 -27 12t-10 25q0 8 3 16l252 592q11 23 35 23q7 0 15 -3q14 -6 20 -20l252 -592q3 -8 3 -16q0 -13 -10 -25t-27 -12q-24 0 -35 23l-79 186h-277zM422 283l-107 248l-108 -248h215zM182 784q0 15 10.5 25t25 15.5t30.5 8t28 2.5
q14 0 31 -6t39 -6q18 0 28.5 2t16.5 4t9.5 4t6.5 2q15 0 26.5 -11t11.5 -27q0 -15 -10.5 -24.5t-25 -15t-30.5 -8t-27 -2.5q-25 0 -56 10q-5 1 -15 1q-18 0 -28.5 -1.5t-16.5 -4t-9 -4t-6 -1.5q-15 0 -27 11t-12 26z" />
    <glyph glyph-name="Adieresis" unicode="&#xc4;" horiz-adv-x="648" 
d="M177 205l-80 -186q-11 -23 -35 -23q-17 0 -27 12t-10 25q0 8 3 16l252 592q11 23 35 23q7 0 15 -3q14 -6 20 -20l252 -592q3 -8 3 -16q0 -13 -10 -25t-27 -12q-24 0 -35 23l-79 186h-277zM422 283l-107 248l-108 -248h215zM225 787q0 16 11 27t27 11q15 0 26.5 -11
t11.5 -27t-11 -27t-27 -11q-15 0 -26.5 11t-11.5 27zM335 787q0 16 11 27t27 11q15 0 26.5 -11t11.5 -27t-11 -27t-27 -11q-15 0 -26.5 11t-11.5 27z" />
    <glyph glyph-name="Aring" unicode="&#xc5;" horiz-adv-x="648" 
d="M177 205l-80 -186q-11 -23 -35 -23q-17 0 -27 12t-10 25q0 8 3 16l252 592q11 23 35 23q7 0 15 -3q14 -6 20 -20l252 -592q3 -8 3 -16q0 -13 -10 -25t-27 -12q-24 0 -35 23l-79 186h-277zM422 283l-107 248l-108 -248h215zM314 881q37 0 63 -26t26 -63q0 -18 -7 -34
t-19 -28t-28.5 -19t-34.5 -7t-34 7t-28 19t-19 28t-7 34t7 34.5t19 28.5t28 19t34 7zM279 792q0 -14 10.5 -24.5t24.5 -10.5t24.5 10.5t10.5 24.5t-10.5 24.5t-24.5 10.5t-24.5 -10.5t-10.5 -24.5z" />
    <glyph glyph-name="AE" unicode="&#xc6;" horiz-adv-x="706" 
d="M281 637q10 23 35 23h309q16 0 27 -11t11 -27q0 -15 -11 -26.5t-27 -11.5h-233v-226h118q16 0 27 -11t11 -27q0 -15 -11 -26.5t-27 -11.5h-118v-206h233q16 0 27 -11t11 -27q0 -15 -11 -26.5t-27 -11.5h-271q-15 0 -26.5 11t-11.5 27v150h-147l-71 -166q-5 -11 -14.5 -17
t-20.5 -6q-17 0 -27 12t-10 25q0 8 3 16zM316 531l-115 -267h115v267z" />
    <glyph glyph-name="cedilla" unicode="&#xb8;" horiz-adv-x="230" 
d="M83 0h76v-17q0 -7 4 -16.5t9 -21t9 -23.5t4 -24q0 -11 -5 -21.5t-18.5 -18t-36.5 -12t-58 -4.5q-16 0 -27 11t-11 27t11 23t24.5 10t25 5.5t11.5 9.5q0 9 -9 23.5t-9 31.5v17z" />
    <glyph glyph-name="Ccedilla" unicode="&#xc7;" horiz-adv-x="546" 
d="M40 445q0 49 19 92t51 75.5t75.5 51t93.5 18.5q36 0 69.5 -10.5t62 -30t50.5 -46t36 -59.5q2 -4 3.5 -9t1.5 -10q0 -14 -10 -26t-28 -12q-23 0 -34 22q-18 45 -59 75t-92 30q-34 0 -64 -13t-52 -34.5t-34.5 -51t-12.5 -62.5v-230q0 -33 13 -62.5t35 -51t52 -34.5t63 -13
q54 0 94 30.5t58 76.5q4 11 13.5 16t19.5 5q17 0 27.5 -12t10.5 -26q0 -8 -3 -15q-13 -35 -35 -62t-50.5 -47t-63 -31t-71.5 -11q-49 0 -92.5 18.5t-76 51t-51.5 75.5t-19 92v230zM215 9h76v-17q0 -7 4 -16.5t9 -21t9 -23.5t4 -24q0 -11 -5 -21.5t-18.5 -18t-36.5 -12
t-58 -4.5q-16 0 -27 11t-11 27t11 23t24.5 10t25 5.5t11.5 9.5q0 9 -9 23.5t-9 31.5v17z" />
    <glyph glyph-name="Egrave" unicode="&#xc8;" horiz-adv-x="558" 
d="M46 622q0 16 11 27t27 11h371q16 0 27 -11t11 -27q0 -15 -11 -26.5t-27 -11.5h-333v-226h118q16 0 27 -11t11 -27q0 -15 -11 -26.5t-27 -11.5h-118v-206h333q16 0 27 -11t11 -27q0 -15 -11 -26.5t-27 -11.5h-371q-15 0 -26.5 11t-11.5 27v584zM220 817q-6 9 -6 20
q0 15 11 26t28 11q21 0 32 -18l41 -71q5 -9 5 -20q0 -15 -10.5 -26t-27.5 -11q-22 0 -32 18z" />
    <glyph glyph-name="Eacute" unicode="&#xc9;" horiz-adv-x="558" 
d="M46 622q0 16 11 27t27 11h371q16 0 27 -11t11 -27q0 -15 -11 -26.5t-27 -11.5h-333v-226h118q16 0 27 -11t11 -27q0 -15 -11 -26.5t-27 -11.5h-118v-206h333q16 0 27 -11t11 -27q0 -15 -11 -26.5t-27 -11.5h-371q-15 0 -26.5 11t-11.5 27v584zM291 856q10 18 32 18
q17 0 27.5 -11t10.5 -26q0 -13 -5 -20l-41 -71q-11 -18 -32 -18q-17 0 -28 11t-11 26q0 9 6 20z" />
    <glyph glyph-name="Ecircumflex" unicode="&#xca;" horiz-adv-x="558" 
d="M46 622q0 16 11 27t27 11h371q16 0 27 -11t11 -27q0 -15 -11 -26.5t-27 -11.5h-333v-226h118q16 0 27 -11t11 -27q0 -15 -11 -26.5t-27 -11.5h-118v-206h333q16 0 27 -11t11 -27q0 -15 -11 -26.5t-27 -11.5h-371q-15 0 -26.5 11t-11.5 27v584zM263 826q8 5 18 5
q12 0 22 -7l66 -48q17 -12 17 -31q0 -16 -12.5 -27t-27.5 -11q-13 0 -21 7l-44 31l-43 -31q-10 -7 -21 -7q-16 0 -28 11t-12 27q0 19 17 31z" />
    <glyph glyph-name="Edieresis" unicode="&#xcb;" horiz-adv-x="558" 
d="M46 622q0 16 11 27t27 11h371q16 0 27 -11t11 -27q0 -15 -11 -26.5t-27 -11.5h-333v-226h118q16 0 27 -11t11 -27q0 -15 -11 -26.5t-27 -11.5h-118v-206h333q16 0 27 -11t11 -27q0 -15 -11 -26.5t-27 -11.5h-371q-15 0 -26.5 11t-11.5 27v584zM190 786q0 16 11 27t27 11
q15 0 26.5 -11t11.5 -27t-11 -27t-27 -11q-15 0 -26.5 11t-11.5 27zM300 786q0 16 11 27t27 11q15 0 26.5 -11t11.5 -27t-11 -27t-27 -11q-15 0 -26.5 11t-11.5 27z" />
    <glyph glyph-name="Igrave" unicode="&#xcc;" horiz-adv-x="181" 
d="M49 626q0 16 11 27t27 11q15 0 26.5 -11t11.5 -27v-592q0 -16 -11 -27t-27 -11q-15 0 -26.5 11t-11.5 27v592zM13 819q-6 9 -6 20q0 15 11 26t28 11q21 0 32 -18l41 -71q5 -9 5 -20q0 -15 -10.5 -26t-27.5 -11q-22 0 -32 18z" />
    <glyph glyph-name="Iacute" unicode="&#xcd;" horiz-adv-x="181" 
d="M49 626q0 16 11 27t27 11q15 0 26.5 -11t11.5 -27v-592q0 -16 -11 -27t-27 -11q-15 0 -26.5 11t-11.5 27v592zM96 857q10 18 32 18q17 0 27.5 -11t10.5 -26q0 -13 -5 -20l-41 -71q-11 -18 -32 -18q-17 0 -28 11t-11 26q0 9 6 20z" />
    <glyph glyph-name="Icircumflex" unicode="&#xce;" horiz-adv-x="181" 
d="M49 626q0 16 11 27t27 11q15 0 26.5 -11t11.5 -27v-592q0 -16 -11 -27t-27 -11q-15 0 -26.5 11t-11.5 27v592zM69 826q8 5 18 5q12 0 22 -7l66 -48q17 -12 17 -31q0 -16 -12.5 -27t-27.5 -11q-13 0 -21 7l-44 31l-43 -31q-10 -7 -21 -7q-16 0 -28 11t-12 27q0 19 17 31z
" />
    <glyph glyph-name="Idieresis" unicode="&#xcf;" horiz-adv-x="181" 
d="M49 626q0 16 11 27t27 11q15 0 26.5 -11t11.5 -27v-592q0 -16 -11 -27t-27 -11q-15 0 -26.5 11t-11.5 27v592zM-4 786q0 16 11 27t27 11q15 0 26.5 -11t11.5 -27t-11 -27t-27 -11q-15 0 -26.5 11t-11.5 27zM106 786q0 16 11 27t27 11q15 0 26.5 -11t11.5 -27t-11 -27
t-27 -11q-15 0 -26.5 11t-11.5 27z" />
    <glyph glyph-name="Eth" unicode="&#xd0;" horiz-adv-x="620" 
d="M94 622q0 16 11 27t27 11h200q49 0 93 -18.5t76 -50.5t51 -74.5t19 -91.5v-190q0 -49 -19 -91.5t-51 -74.5t-75.5 -50.5t-92.5 -18.5h-201q-15 0 -26.5 11t-11.5 27v245h-22q-16 0 -27 11t-11 27q0 15 11 26.5t27 11.5h22v263zM170 584v-225h117q16 0 27 -11t11 -27
q0 -15 -11 -26.5t-27 -11.5h-117v-207h163q34 0 63.5 12.5t51.5 34t34.5 50.5t12.5 62v190q0 33 -12.5 62t-34.5 50.5t-52 34t-64 12.5h-162z" />
    <glyph glyph-name="Ntilde" unicode="&#xd1;" horiz-adv-x="571" 
d="M42 427q0 49 19 92t51 75t75.5 51t92.5 19t92.5 -19t76 -51t51.5 -75t19 -92v-393q0 -16 -11 -27t-27 -11q-15 0 -26.5 11t-11.5 27v393q0 33 -13 62.5t-35 51t-52 34.5t-63 13q-34 0 -63.5 -13t-51.5 -34.5t-34.5 -51t-12.5 -62.5v-393q0 -16 -11 -27t-27 -11
q-15 0 -26.5 11t-11.5 27v393zM133 785q0 15 10.5 25t25 15.5t30.5 8t28 2.5q14 0 31 -6t39 -6q18 0 28.5 2t16.5 4t9.5 4t6.5 2q15 0 26.5 -11t11.5 -27q0 -15 -10.5 -24.5t-25 -15t-30.5 -8t-27 -2.5q-25 0 -56 10q-5 1 -15 1q-18 0 -28.5 -1.5t-16.5 -4t-9 -4t-6 -1.5
q-15 0 -27 11t-12 26z" />
    <glyph glyph-name="Ograve" unicode="&#xd2;" horiz-adv-x="563" 
d="M39 445q0 49 19 92t51 75.5t75.5 51t93.5 18.5q49 0 92 -18.5t75.5 -51t51.5 -75.5t19 -92v-230q0 -49 -19 -92t-51 -75.5t-75.5 -51t-92.5 -18.5t-92.5 18.5t-76 51t-51.5 75.5t-19 92v230zM115 215q0 -33 13 -62.5t35 -51t52 -34.5t63 -13q34 0 63.5 13t51.5 34.5
t34.5 51t12.5 62.5v230q0 33 -13 62.5t-35 51t-51.5 34.5t-62.5 13q-34 0 -64 -13t-52 -34.5t-34.5 -51t-12.5 -62.5v-230zM199 817q-6 9 -6 20q0 15 11 26t28 11q21 0 32 -18l41 -71q5 -9 5 -20q0 -15 -10.5 -26t-27.5 -11q-22 0 -32 18z" />
    <glyph glyph-name="Oacute" unicode="&#xd3;" horiz-adv-x="563" 
d="M39 445q0 49 19 92t51 75.5t75.5 51t93.5 18.5q49 0 92 -18.5t75.5 -51t51.5 -75.5t19 -92v-230q0 -49 -19 -92t-51 -75.5t-75.5 -51t-92.5 -18.5t-92.5 18.5t-76 51t-51.5 75.5t-19 92v230zM115 215q0 -33 13 -62.5t35 -51t52 -34.5t63 -13q34 0 63.5 13t51.5 34.5
t34.5 51t12.5 62.5v230q0 33 -13 62.5t-35 51t-51.5 34.5t-62.5 13q-34 0 -64 -13t-52 -34.5t-34.5 -51t-12.5 -62.5v-230zM287 857q10 18 32 18q17 0 27.5 -11t10.5 -26q0 -13 -5 -20l-41 -71q-11 -18 -32 -18q-17 0 -28 11t-11 26q0 9 6 20z" />
    <glyph glyph-name="Ocircumflex" unicode="&#xd4;" horiz-adv-x="563" 
d="M39 445q0 49 19 92t51 75.5t75.5 51t93.5 18.5q49 0 92 -18.5t75.5 -51t51.5 -75.5t19 -92v-230q0 -49 -19 -92t-51 -75.5t-75.5 -51t-92.5 -18.5t-92.5 18.5t-76 51t-51.5 75.5t-19 92v230zM115 215q0 -33 13 -62.5t35 -51t52 -34.5t63 -13q34 0 63.5 13t51.5 34.5
t34.5 51t12.5 62.5v230q0 33 -13 62.5t-35 51t-51.5 34.5t-62.5 13q-34 0 -64 -13t-52 -34.5t-34.5 -51t-12.5 -62.5v-230zM256 826q8 5 18 5q12 0 22 -7l66 -48q17 -12 17 -31q0 -16 -12.5 -27t-27.5 -11q-13 0 -21 7l-44 31l-43 -31q-10 -7 -21 -7q-16 0 -28 11t-12 27
q0 19 17 31z" />
    <glyph glyph-name="Otilde" unicode="&#xd5;" horiz-adv-x="563" 
d="M39 445q0 49 19 92t51 75.5t75.5 51t93.5 18.5q49 0 92 -18.5t75.5 -51t51.5 -75.5t19 -92v-230q0 -49 -19 -92t-51 -75.5t-75.5 -51t-92.5 -18.5t-92.5 18.5t-76 51t-51.5 75.5t-19 92v230zM115 215q0 -33 13 -62.5t35 -51t52 -34.5t63 -13q34 0 63.5 13t51.5 34.5
t34.5 51t12.5 62.5v230q0 33 -13 62.5t-35 51t-51.5 34.5t-62.5 13q-34 0 -64 -13t-52 -34.5t-34.5 -51t-12.5 -62.5v-230zM139 785q0 15 10.5 25t25 15.5t30.5 8t28 2.5q14 0 31 -6t39 -6q18 0 28.5 2t16.5 4t9.5 4t6.5 2q15 0 26.5 -11t11.5 -27q0 -15 -10.5 -24.5
t-25 -15t-30.5 -8t-27 -2.5q-25 0 -56 10q-5 1 -15 1q-18 0 -28.5 -1.5t-16.5 -4t-9 -4t-6 -1.5q-15 0 -27 11t-12 26z" />
    <glyph glyph-name="Odieresis" unicode="&#xd6;" horiz-adv-x="563" 
d="M39 445q0 49 19 92t51 75.5t75.5 51t93.5 18.5q49 0 92 -18.5t75.5 -51t51.5 -75.5t19 -92v-230q0 -49 -19 -92t-51 -75.5t-75.5 -51t-92.5 -18.5t-92.5 18.5t-76 51t-51.5 75.5t-19 92v230zM115 215q0 -33 13 -62.5t35 -51t52 -34.5t63 -13q34 0 63.5 13t51.5 34.5
t34.5 51t12.5 62.5v230q0 33 -13 62.5t-35 51t-51.5 34.5t-62.5 13q-34 0 -64 -13t-52 -34.5t-34.5 -51t-12.5 -62.5v-230zM182 786q0 16 11 27t27 11q15 0 26.5 -11t11.5 -27t-11 -27t-27 -11q-15 0 -26.5 11t-11.5 27zM292 786q0 16 11 27t27 11q15 0 26.5 -11t11.5 -27
t-11 -27t-27 -11q-15 0 -26.5 11t-11.5 27z" />
    <glyph glyph-name="multiply" unicode="&#xd7;" horiz-adv-x="368" 
d="M56 352q-11 10 -11 27q0 15 11 26t26 11t28 -11l70 -70l70 70q11 11 27 11q15 0 26 -11t11 -26q0 -16 -11 -27l-70 -70l71 -71q11 -13 11 -27q0 -15 -10.5 -26.5t-27.5 -11.5q-16 0 -27 11l-70 71l-71 -71q-11 -11 -27 -11q-15 0 -26.5 10.5t-11.5 27.5q0 16 11 27l71 71
z" />
    <glyph glyph-name="Oslash" unicode="&#xd8;" horiz-adv-x="563" 
d="M39 445q0 49 19 92t51 75.5t75.5 51t93.5 18.5q49 0 92 -18.5t75.5 -51t51.5 -75.5t19 -92v-230q0 -49 -19 -92t-51 -75.5t-75.5 -51t-92.5 -18.5t-92.5 18.5t-76 51t-51.5 75.5t-19 92v230zM115 215q0 -33 13 -62.5t35 -51t52 -34.5t63 -13q34 0 63.5 13t51.5 34.5
t34.5 51t12.5 62.5v230q0 33 -13 62.5t-35 51t-51.5 34.5t-62.5 13q-34 0 -64 -13t-52 -34.5t-34.5 -51t-12.5 -62.5v-230zM424 647q4 8 11 11.5t15 5.5q17 2 29 -8.5t14 -25.5q2 -14 -5 -24l-346 -593q-5 -8 -12 -12t-14 -5q-17 -2 -30 8.5t-15 24.5t6 26z" />
    <glyph glyph-name="Ugrave" unicode="&#xd9;" horiz-adv-x="571" 
d="M42 626q0 16 11 27t27 11q15 0 26.5 -11t11.5 -27v-411q0 -33 13 -62.5t35 -51t52 -34.5t63 -13q34 0 63.5 13t51.5 34.5t34.5 51t12.5 62.5v411q0 16 11 27t27 11q15 0 26.5 -11t11.5 -27v-411q0 -49 -19 -92t-51 -75.5t-75.5 -51t-92.5 -18.5t-92.5 18.5t-76 51
t-51.5 75.5t-19 92v411zM206 817q-6 9 -6 20q0 15 11 26t28 11q21 0 32 -18l41 -71q5 -9 5 -20q0 -15 -10.5 -26t-27.5 -11q-22 0 -32 18z" />
    <glyph glyph-name="Uacute" unicode="&#xda;" horiz-adv-x="571" 
d="M42 626q0 16 11 27t27 11q15 0 26.5 -11t11.5 -27v-411q0 -33 13 -62.5t35 -51t52 -34.5t63 -13q34 0 63.5 13t51.5 34.5t34.5 51t12.5 62.5v411q0 16 11 27t27 11q15 0 26.5 -11t11.5 -27v-411q0 -49 -19 -92t-51 -75.5t-75.5 -51t-92.5 -18.5t-92.5 18.5t-76 51
t-51.5 75.5t-19 92v411zM289 857q10 18 32 18q17 0 27.5 -11t10.5 -26q0 -13 -5 -20l-41 -71q-11 -18 -32 -18q-17 0 -28 11t-11 26q0 9 6 20z" />
    <glyph glyph-name="Ucircumflex" unicode="&#xdb;" horiz-adv-x="571" 
d="M42 626q0 16 11 27t27 11q15 0 26.5 -11t11.5 -27v-411q0 -33 13 -62.5t35 -51t52 -34.5t63 -13q34 0 63.5 13t51.5 34.5t34.5 51t12.5 62.5v411q0 16 11 27t27 11q15 0 26.5 -11t11.5 -27v-411q0 -49 -19 -92t-51 -75.5t-75.5 -51t-92.5 -18.5t-92.5 18.5t-76 51
t-51.5 75.5t-19 92v411zM260 824q8 5 18 5q12 0 22 -7l66 -48q17 -12 17 -31q0 -16 -12.5 -27t-27.5 -11q-13 0 -21 7l-44 31l-43 -31q-10 -7 -21 -7q-16 0 -28 11t-12 27q0 19 17 31z" />
    <glyph glyph-name="Udieresis" unicode="&#xdc;" horiz-adv-x="571" 
d="M42 626q0 16 11 27t27 11q15 0 26.5 -11t11.5 -27v-411q0 -33 13 -62.5t35 -51t52 -34.5t63 -13q34 0 63.5 13t51.5 34.5t34.5 51t12.5 62.5v411q0 16 11 27t27 11q15 0 26.5 -11t11.5 -27v-411q0 -49 -19 -92t-51 -75.5t-75.5 -51t-92.5 -18.5t-92.5 18.5t-76 51
t-51.5 75.5t-19 92v411zM186 786q0 16 11 27t27 11q15 0 26.5 -11t11.5 -27t-11 -27t-27 -11q-15 0 -26.5 11t-11.5 27zM296 786q0 16 11 27t27 11q15 0 26.5 -11t11.5 -27t-11 -27t-27 -11q-15 0 -26.5 11t-11.5 27z" />
    <glyph glyph-name="Yacute" unicode="&#xdd;" horiz-adv-x="547" 
d="M431 203q-30 -30 -71.5 -47.5t-92.5 -17.5q-35 0 -76.5 14t-77 42.5t-59.5 73t-24 106.5v254q0 15 11 26.5t27 11.5q15 0 26.5 -11t11.5 -27v-244q0 -33 11.5 -63.5t33 -54t51 -37.5t65.5 -14t66 13t52 34.5t34 51t12 62.5v252q0 16 11 27t27 11q15 0 26.5 -11t11.5 -27
v-474q0 -50 -16.5 -85t-45 -57.5t-67 -32.5t-82.5 -10q-16 0 -27 11t-11 27t11 27t27 11q25 0 49 5.5t43 17.5t31 31t12 46v58zM279 858q10 18 32 18q17 0 27.5 -11t10.5 -26q0 -13 -5 -20l-41 -71q-11 -18 -32 -18q-17 0 -28 11t-11 26q0 9 6 20z" />
    <glyph glyph-name="acircumflex" unicode="&#xe2;" horiz-adv-x="452" 
d="M47 196q0 37 14.5 69t39 55t57.5 36t70 13q25 0 44.5 -5.5t33.5 -11.5q16 -8 27 -17q-7 36 -25 57t-41.5 29.5t-47.5 6.5t-43 -12q-14 -8 -29 -3.5t-23 18.5t-3 29t19 23q35 23 81.5 24.5t88 -19t70.5 -62t29 -104.5v-147q0 -38 -14.5 -70.5t-39 -57t-57.5 -38.5t-70 -14
q-38 0 -70.5 14t-57.5 38.5t-39 57t-14 70.5v21zM123 175q0 -21 8 -40t22.5 -33.5t33.5 -22.5t41 -8q21 0 40.5 8t33.5 22.5t22.5 33.5t8.5 40v23q-2 42 -32 68.5t-73 26.5t-74 -27t-31 -70v-21zM200 658q8 5 18 5q12 0 22 -7l66 -48q17 -12 17 -31q0 -16 -12.5 -27
t-27.5 -11q-13 0 -21 7l-44 31l-43 -31q-10 -7 -21 -7q-16 0 -28 11t-12 27q0 19 17 31z" />
    <glyph glyph-name="atilde" unicode="&#xe3;" horiz-adv-x="452" 
d="M47 196q0 37 14.5 69t39 55t57.5 36t70 13q25 0 44.5 -5.5t33.5 -11.5q16 -8 27 -17q-7 36 -25 57t-41.5 29.5t-47.5 6.5t-43 -12q-14 -8 -29 -3.5t-23 18.5t-3 29t19 23q35 23 81.5 24.5t88 -19t70.5 -62t29 -104.5v-147q0 -38 -14.5 -70.5t-39 -57t-57.5 -38.5t-70 -14
q-38 0 -70.5 14t-57.5 38.5t-39 57t-14 70.5v21zM123 175q0 -21 8 -40t22.5 -33.5t33.5 -22.5t41 -8q21 0 40.5 8t33.5 22.5t22.5 33.5t8.5 40v23q-2 42 -32 68.5t-73 26.5t-74 -27t-31 -70v-21zM84 620q0 15 10.5 25t25 15.5t30.5 8t28 2.5q14 0 31 -6t39 -6q18 0 28.5 2
t16.5 4t9.5 4t6.5 2q15 0 26.5 -11t11.5 -27q0 -15 -10.5 -24.5t-25 -15t-30.5 -8t-27 -2.5q-25 0 -56 10q-5 1 -15 1q-18 0 -28.5 -1.5t-16.5 -4t-9 -4t-6 -1.5q-15 0 -27 11t-12 26z" />
    <glyph glyph-name="adieresis" unicode="&#xe4;" horiz-adv-x="452" 
d="M47 196q0 37 14.5 69t39 55t57.5 36t70 13q25 0 44.5 -5.5t33.5 -11.5q16 -8 27 -17q-7 36 -25 57t-41.5 29.5t-47.5 6.5t-43 -12q-14 -8 -29 -3.5t-23 18.5t-3 29t19 23q35 23 81.5 24.5t88 -19t70.5 -62t29 -104.5v-147q0 -38 -14.5 -70.5t-39 -57t-57.5 -38.5t-70 -14
q-38 0 -70.5 14t-57.5 38.5t-39 57t-14 70.5v21zM123 175q0 -21 8 -40t22.5 -33.5t33.5 -22.5t41 -8q21 0 40.5 8t33.5 22.5t22.5 33.5t8.5 40v23q-2 42 -32 68.5t-73 26.5t-74 -27t-31 -70v-21zM117 625q0 16 11 27t27 11q15 0 26.5 -11t11.5 -27t-11 -27t-27 -11
q-15 0 -26.5 11t-11.5 27zM227 625q0 16 11 27t27 11q15 0 26.5 -11t11.5 -27t-11 -27t-27 -11q-15 0 -26.5 11t-11.5 27z" />
    <glyph glyph-name="aring" unicode="&#xe5;" horiz-adv-x="452" 
d="M47 196q0 37 14.5 69t39 55t57.5 36t70 13q25 0 44.5 -5.5t33.5 -11.5q16 -8 27 -17q-7 36 -25 57t-41.5 29.5t-47.5 6.5t-43 -12q-14 -8 -29 -3.5t-23 18.5t-3 29t19 23q35 23 81.5 24.5t88 -19t70.5 -62t29 -104.5v-147q0 -38 -14.5 -70.5t-39 -57t-57.5 -38.5t-70 -14
q-38 0 -70.5 14t-57.5 38.5t-39 57t-14 70.5v21zM123 175q0 -21 8 -40t22.5 -33.5t33.5 -22.5t41 -8q21 0 40.5 8t33.5 22.5t22.5 33.5t8.5 40v23q-2 42 -32 68.5t-73 26.5t-74 -27t-31 -70v-21zM220 711q37 0 63 -26t26 -63q0 -18 -7 -34t-19 -28t-28.5 -19t-34.5 -7t-34 7
t-28 19t-19 28t-7 34t7 34.5t19 28.5t28 19t34 7zM185 622q0 -14 10.5 -24.5t24.5 -10.5t24.5 10.5t10.5 24.5t-10.5 24.5t-24.5 10.5t-24.5 -10.5t-10.5 -24.5z" />
    <glyph glyph-name="ae" unicode="&#xe6;" horiz-adv-x="726" 
d="M47 196q0 37 14.5 69t39 55t57.5 36t70 13q25 0 44.5 -5.5t33.5 -11.5q16 -8 27 -17q-7 36 -25 57t-41.5 29.5t-47.5 6.5t-43 -12q-14 -8 -29 -3.5t-23 18.5t-3 29t19 23q35 23 81.5 24.5t88 -19t70.5 -62t29 -104.5v-147q0 -38 -14.5 -70.5t-39 -57t-57.5 -38.5t-70 -14
q-38 0 -70.5 14t-57.5 38.5t-39 57t-14 70.5v21zM123 175q0 -21 8 -40t22.5 -33.5t33.5 -22.5t41 -8q21 0 40.5 8t33.5 22.5t22.5 33.5t8.5 40v23q-2 42 -32 68.5t-73 26.5t-74 -27t-31 -70v-21zM324 325q0 37 14 70t39 57.5t57.5 38.5t70.5 14q37 0 70 -14t57.5 -38.5
t39 -57.5t14.5 -70v-77q0 -16 -11 -27t-27 -11h-248v-34q0 -21 8.5 -40t22.5 -33.5t33.5 -22.5t40.5 -8q32 0 57.5 16.5t38.5 44.5l1 3q4 11 13.5 17.5t21.5 6.5q16 0 27 -11.5t11 -26.5q0 -7 -5 -18q-21 -48 -65 -78t-100 -30q-37 0 -70 14t-57.5 38.5t-39 57.5t-14.5 70
v149zM400 286h210v39q0 21 -8.5 40t-22.5 33.5t-33.5 22.5t-40.5 8q-22 0 -41 -8t-33.5 -22.5t-22.5 -33.5t-8 -40v-39z" />
    <glyph glyph-name="ccedilla" unicode="&#xe7;" horiz-adv-x="432" 
d="M37 325q0 38 14.5 71t40 57t59 38t71.5 14q7 0 27.5 -2.5t45.5 -13.5t49.5 -33.5t40.5 -62.5q3 -8 3 -14q0 -16 -11 -27t-27 -11q-12 0 -21.5 6.5t-13.5 17.5q-14 30 -40 47t-57 17q-22 0 -41 -8t-33.5 -22.5t-22.5 -33.5t-8 -40v-149q0 -21 8.5 -40t22.5 -33.5
t33.5 -22.5t40.5 -8q32 0 58 17t39 47q5 11 14 17.5t21 6.5q16 0 27 -11.5t11 -26.5q0 -7 -3 -14q-20 -44 -48 -67t-54.5 -33t-45 -11t-19.5 -1q-37 0 -70 14t-57.5 38.5t-39 57.5t-14.5 70v149zM166 13h76v-17q0 -7 4 -16.5t9 -21t9 -23.5t4 -24q0 -11 -5 -21.5t-18.5 -18
t-36.5 -12t-58 -4.5q-16 0 -27 11t-11 27t11 23t24.5 10t25 5.5t11.5 9.5q0 9 -9 23.5t-9 31.5v17z" />
    <glyph glyph-name="egrave" unicode="&#xe8;" horiz-adv-x="446" 
d="M38 325q0 37 14 70t39 57.5t57.5 38.5t70.5 14q37 0 70 -14t57.5 -38.5t39 -57.5t14.5 -70v-77q0 -16 -11 -27t-27 -11h-248v-34q0 -21 8.5 -40t22.5 -33.5t33.5 -22.5t40.5 -8q32 0 57.5 16.5t38.5 44.5l1 3q4 11 13.5 17.5t21.5 6.5q16 0 27 -11.5t11 -26.5
q0 -7 -5 -18q-21 -48 -65 -78t-100 -30q-37 0 -70 14t-57.5 38.5t-39 57.5t-14.5 70v149zM114 286h210v39q0 21 -8.5 40t-22.5 33.5t-33.5 22.5t-40.5 8q-22 0 -41 -8t-33.5 -22.5t-22.5 -33.5t-8 -40v-39zM139 647q-6 9 -6 20q0 15 11 26t28 11q21 0 32 -18l41 -71
q5 -9 5 -20q0 -15 -10.5 -26t-27.5 -11q-22 0 -32 18z" />
    <glyph glyph-name="eacute" unicode="&#xe9;" horiz-adv-x="446" 
d="M38 325q0 37 14 70t39 57.5t57.5 38.5t70.5 14q37 0 70 -14t57.5 -38.5t39 -57.5t14.5 -70v-77q0 -16 -11 -27t-27 -11h-248v-34q0 -21 8.5 -40t22.5 -33.5t33.5 -22.5t40.5 -8q32 0 57.5 16.5t38.5 44.5l1 3q4 11 13.5 17.5t21.5 6.5q16 0 27 -11.5t11 -26.5
q0 -7 -5 -18q-21 -48 -65 -78t-100 -30q-37 0 -70 14t-57.5 38.5t-39 57.5t-14.5 70v149zM114 286h210v39q0 21 -8.5 40t-22.5 33.5t-33.5 22.5t-40.5 8q-22 0 -41 -8t-33.5 -22.5t-22.5 -33.5t-8 -40v-39zM229 686q10 18 32 18q17 0 27.5 -11t10.5 -26q0 -13 -5 -20
l-41 -71q-11 -18 -32 -18q-17 0 -28 11t-11 26q0 9 6 20z" />
    <glyph glyph-name="ecircumflex" unicode="&#xea;" horiz-adv-x="446" 
d="M38 325q0 37 14 70t39 57.5t57.5 38.5t70.5 14q37 0 70 -14t57.5 -38.5t39 -57.5t14.5 -70v-77q0 -16 -11 -27t-27 -11h-248v-34q0 -21 8.5 -40t22.5 -33.5t33.5 -22.5t40.5 -8q32 0 57.5 16.5t38.5 44.5l1 3q4 11 13.5 17.5t21.5 6.5q16 0 27 -11.5t11 -26.5
q0 -7 -5 -18q-21 -48 -65 -78t-100 -30q-37 0 -70 14t-57.5 38.5t-39 57.5t-14.5 70v149zM114 286h210v39q0 21 -8.5 40t-22.5 33.5t-33.5 22.5t-40.5 8q-22 0 -41 -8t-33.5 -22.5t-22.5 -33.5t-8 -40v-39zM197 658q8 5 18 5q12 0 22 -7l66 -48q17 -12 17 -31
q0 -16 -12.5 -27t-27.5 -11q-13 0 -21 7l-44 31l-43 -31q-10 -7 -21 -7q-16 0 -28 11t-12 27q0 19 17 31z" />
    <glyph glyph-name="edieresis" unicode="&#xeb;" horiz-adv-x="446" 
d="M38 325q0 37 14 70t39 57.5t57.5 38.5t70.5 14q37 0 70 -14t57.5 -38.5t39 -57.5t14.5 -70v-77q0 -16 -11 -27t-27 -11h-248v-34q0 -21 8.5 -40t22.5 -33.5t33.5 -22.5t40.5 -8q32 0 57.5 16.5t38.5 44.5l1 3q4 11 13.5 17.5t21.5 6.5q16 0 27 -11.5t11 -26.5
q0 -7 -5 -18q-21 -48 -65 -78t-100 -30q-37 0 -70 14t-57.5 38.5t-39 57.5t-14.5 70v149zM114 286h210v39q0 21 -8.5 40t-22.5 33.5t-33.5 22.5t-40.5 8q-22 0 -41 -8t-33.5 -22.5t-22.5 -33.5t-8 -40v-39zM127 625q0 16 11 27t27 11q15 0 26.5 -11t11.5 -27t-11 -27
t-27 -11q-15 0 -26.5 11t-11.5 27zM237 625q0 16 11 27t27 11q15 0 26.5 -11t11.5 -27t-11 -27t-27 -11q-15 0 -26.5 11t-11.5 27z" />
    <glyph glyph-name="igrave" unicode="&#xec;" horiz-adv-x="166" 
d="M38 458q0 16 11 27t27 11q15 0 26.5 -11t11.5 -27v-420q0 -16 -11 -27t-27 -11q-15 0 -26.5 11t-11.5 27v420zM-6 648q-6 9 -6 20q0 15 11 26t28 11q21 0 32 -18l41 -71q5 -9 5 -20q0 -15 -10.5 -26t-27.5 -11q-22 0 -32 18z" />
    <glyph glyph-name="iacute" unicode="&#xed;" horiz-adv-x="169" 
d="M40 458q0 16 11 27t27 11q15 0 26.5 -11t11.5 -27v-420q0 -16 -11 -27t-27 -11q-15 0 -26.5 11t-11.5 27v420zM90 687q10 18 32 18q17 0 27.5 -11t10.5 -26q0 -13 -5 -20l-41 -71q-11 -18 -32 -18q-17 0 -28 11t-11 26q0 9 6 20z" />
    <glyph glyph-name="icircumflex" unicode="&#xee;" horiz-adv-x="194" 
d="M52 458q0 16 11 27t27 11q15 0 26.5 -11t11.5 -27v-420q0 -16 -11 -27t-27 -11q-15 0 -26.5 11t-11.5 27v420zM71 654q8 5 18 5q12 0 22 -7l66 -48q17 -12 17 -31q0 -16 -12.5 -27t-27.5 -11q-13 0 -21 7l-44 31l-43 -31q-10 -7 -21 -7q-16 0 -28 11t-12 27q0 19 17 31z
" />
    <glyph glyph-name="idieresis" unicode="&#xef;" horiz-adv-x="171" 
d="M46 458q0 16 11 27t27 11q15 0 26.5 -11t11.5 -27v-420q0 -16 -11 -27t-27 -11q-15 0 -26.5 11t-11.5 27v420zM-8 620q0 16 11 27t27 11q15 0 26.5 -11t11.5 -27t-11 -27t-27 -11q-15 0 -26.5 11t-11.5 27zM102 620q0 16 11 27t27 11q15 0 26.5 -11t11.5 -27t-11 -27
t-27 -11q-15 0 -26.5 11t-11.5 27z" />
    <glyph glyph-name="ntilde" unicode="&#xf1;" horiz-adv-x="456" 
d="M42 325q0 37 14 70t39 57.5t57.5 38.5t70.5 14q37 0 70 -14t57.5 -38.5t39 -57.5t14.5 -70v-291q0 -16 -11.5 -27t-26.5 -11q-16 0 -27 11t-11 27v291q0 21 -8.5 40t-22.5 33.5t-33.5 22.5t-40.5 8q-22 0 -41 -8t-33.5 -22.5t-22.5 -33.5t-8 -40v-291q0 -16 -11.5 -27
t-26.5 -11q-16 0 -27 11t-11 27v291zM91 620q0 15 10.5 25t25 15.5t30.5 8t28 2.5q14 0 31 -6t39 -6q18 0 28.5 2t16.5 4t9.5 4t6.5 2q15 0 26.5 -11t11.5 -27q0 -15 -10.5 -24.5t-25 -15t-30.5 -8t-27 -2.5q-25 0 -56 10q-5 1 -15 1q-18 0 -28.5 -1.5t-16.5 -4t-9 -4
t-6 -1.5q-15 0 -27 11t-12 26z" />
    <glyph glyph-name="ograve" unicode="&#xf2;" 
d="M38 325q0 37 14 70t39 57.5t57.5 38.5t70.5 14q37 0 70 -14t57.5 -38.5t39 -57.5t14.5 -70v-149q0 -37 -14 -70t-39 -57.5t-58 -38.5t-70 -14t-70 14t-57.5 38.5t-39 57.5t-14.5 70v149zM114 176q0 -21 8.5 -40t22.5 -33.5t33.5 -22.5t40.5 -8q22 0 41 8t33.5 22.5
t22.5 33.5t8 40v149q0 21 -8.5 40t-22.5 33.5t-33.5 22.5t-40.5 8q-22 0 -41 -8t-33.5 -22.5t-22.5 -33.5t-8 -40v-149zM138 647q-6 9 -6 20q0 15 11 26t28 11q21 0 32 -18l41 -71q5 -9 5 -20q0 -15 -10.5 -26t-27.5 -11q-22 0 -32 18z" />
    <glyph glyph-name="oacute" unicode="&#xf3;" 
d="M38 325q0 37 14 70t39 57.5t57.5 38.5t70.5 14q37 0 70 -14t57.5 -38.5t39 -57.5t14.5 -70v-149q0 -37 -14 -70t-39 -57.5t-58 -38.5t-70 -14t-70 14t-57.5 38.5t-39 57.5t-14.5 70v149zM114 176q0 -21 8.5 -40t22.5 -33.5t33.5 -22.5t40.5 -8q22 0 41 8t33.5 22.5
t22.5 33.5t8 40v149q0 21 -8.5 40t-22.5 33.5t-33.5 22.5t-40.5 8q-22 0 -41 -8t-33.5 -22.5t-22.5 -33.5t-8 -40v-149zM229 685q10 18 32 18q17 0 27.5 -11t10.5 -26q0 -13 -5 -20l-41 -71q-11 -18 -32 -18q-17 0 -28 11t-11 26q0 9 6 20z" />
    <glyph glyph-name="ocircumflex" unicode="&#xf4;" 
d="M38 325q0 37 14 70t39 57.5t57.5 38.5t70.5 14q37 0 70 -14t57.5 -38.5t39 -57.5t14.5 -70v-149q0 -37 -14 -70t-39 -57.5t-58 -38.5t-70 -14t-70 14t-57.5 38.5t-39 57.5t-14.5 70v149zM114 176q0 -21 8.5 -40t22.5 -33.5t33.5 -22.5t40.5 -8q22 0 41 8t33.5 22.5
t22.5 33.5t8 40v149q0 21 -8.5 40t-22.5 33.5t-33.5 22.5t-40.5 8q-22 0 -41 -8t-33.5 -22.5t-22.5 -33.5t-8 -40v-149zM199 658q8 5 18 5q12 0 22 -7l66 -48q17 -12 17 -31q0 -16 -12.5 -27t-27.5 -11q-13 0 -21 7l-44 31l-43 -31q-10 -7 -21 -7q-16 0 -28 11t-12 27
q0 19 17 31z" />
    <glyph glyph-name="otilde" unicode="&#xf5;" 
d="M38 325q0 37 14 70t39 57.5t57.5 38.5t70.5 14q37 0 70 -14t57.5 -38.5t39 -57.5t14.5 -70v-149q0 -37 -14 -70t-39 -57.5t-58 -38.5t-70 -14t-70 14t-57.5 38.5t-39 57.5t-14.5 70v149zM114 176q0 -21 8.5 -40t22.5 -33.5t33.5 -22.5t40.5 -8q22 0 41 8t33.5 22.5
t22.5 33.5t8 40v149q0 21 -8.5 40t-22.5 33.5t-33.5 22.5t-40.5 8q-22 0 -41 -8t-33.5 -22.5t-22.5 -33.5t-8 -40v-149zM82 619q0 15 10.5 25t25 15.5t30.5 8t28 2.5q14 0 31 -6t39 -6q18 0 28.5 2t16.5 4t9.5 4t6.5 2q15 0 26.5 -11t11.5 -27q0 -15 -10.5 -24.5t-25 -15
t-30.5 -8t-27 -2.5q-25 0 -56 10q-5 1 -15 1q-18 0 -28.5 -1.5t-16.5 -4t-9 -4t-6 -1.5q-15 0 -27 11t-12 26z" />
    <glyph glyph-name="odieresis" unicode="&#xf6;" 
d="M38 325q0 37 14 70t39 57.5t57.5 38.5t70.5 14q37 0 70 -14t57.5 -38.5t39 -57.5t14.5 -70v-149q0 -37 -14 -70t-39 -57.5t-58 -38.5t-70 -14t-70 14t-57.5 38.5t-39 57.5t-14.5 70v149zM114 176q0 -21 8.5 -40t22.5 -33.5t33.5 -22.5t40.5 -8q22 0 41 8t33.5 22.5
t22.5 33.5t8 40v149q0 21 -8.5 40t-22.5 33.5t-33.5 22.5t-40.5 8q-22 0 -41 -8t-33.5 -22.5t-22.5 -33.5t-8 -40v-149zM125 625q0 16 11 27t27 11q15 0 26.5 -11t11.5 -27t-11 -27t-27 -11q-15 0 -26.5 11t-11.5 27zM235 625q0 16 11 27t27 11q15 0 26.5 -11t11.5 -27
t-11 -27t-27 -11q-15 0 -26.5 11t-11.5 27z" />
    <glyph glyph-name="divide" unicode="&#xf7;" horiz-adv-x="393" 
d="M153 429q0 16 11 27t27 11q15 0 26.5 -11t11.5 -27t-11 -27t-27 -11q-15 0 -26.5 11t-11.5 27zM153 139q0 16 11 27t27 11q15 0 26.5 -11t11.5 -27t-11 -27t-27 -11q-15 0 -26.5 11t-11.5 27zM54 244q-16 0 -27 11t-11 27q0 15 11 26.5t27 11.5h275q16 0 27 -11t11 -27
q0 -15 -11 -26.5t-27 -11.5h-275z" />
    <glyph glyph-name="oslash" unicode="&#xf8;" 
d="M38 325q0 37 14 70t39 57.5t57.5 38.5t70.5 14q37 0 70 -14t57.5 -38.5t39 -57.5t14.5 -70v-149q0 -37 -14 -70t-39 -57.5t-58 -38.5t-70 -14t-70 14t-57.5 38.5t-39 57.5t-14.5 70v149zM114 176q0 -21 8.5 -40t22.5 -33.5t33.5 -22.5t40.5 -8q22 0 41 8t33.5 22.5
t22.5 33.5t8 40v149q0 21 -8.5 40t-22.5 33.5t-33.5 22.5t-40.5 8q-22 0 -41 -8t-33.5 -22.5t-22.5 -33.5t-8 -40v-149zM338.957 530.426q3.45801 6.92285 9.51074 9.95117t12.9707 4.75879q14.6992 1.73145 25.0762 -7.35449q10.376 -9.08594 12.1055 -22.0654
q1.72949 -12.1143 -4.32324 -20.7666l-299.182 -513.12q-4.32324 -6.92285 -10.376 -10.3838t-12.1055 -4.32617q-14.7002 -1.73047 -25.9404 7.35449q-11.2412 9.08594 -12.9707 21.2002t5.18848 22.4971z" />
    <glyph glyph-name="ugrave" unicode="&#xf9;" horiz-adv-x="456" 
d="M42 467q0 16 11 27t27 11q15 0 26.5 -11t11.5 -27v-291q0 -21 8 -40t22.5 -33.5t33.5 -22.5t41 -8q21 0 40.5 8t33.5 22.5t22.5 33.5t8.5 40v291q0 16 11 27t27 11q15 0 26.5 -11t11.5 -27v-291q0 -37 -14.5 -70t-39 -57.5t-57.5 -38.5t-70 -14q-38 0 -70.5 14
t-57.5 38.5t-39 57.5t-14 70v291zM148 647q-6 9 -6 20q0 15 11 26t28 11q21 0 32 -18l41 -71q5 -9 5 -20q0 -15 -10.5 -26t-27.5 -11q-22 0 -32 18z" />
    <glyph glyph-name="uacute" unicode="&#xfa;" horiz-adv-x="456" 
d="M42 467q0 16 11 27t27 11q15 0 26.5 -11t11.5 -27v-291q0 -21 8 -40t22.5 -33.5t33.5 -22.5t41 -8q21 0 40.5 8t33.5 22.5t22.5 33.5t8.5 40v291q0 16 11 27t27 11q15 0 26.5 -11t11.5 -27v-291q0 -37 -14.5 -70t-39 -57.5t-57.5 -38.5t-70 -14q-38 0 -70.5 14
t-57.5 38.5t-39 57.5t-14 70v291zM237 664q10 18 32 18q17 0 27.5 -11t10.5 -26q0 -13 -5 -20l-41 -71q-11 -18 -32 -18q-17 0 -28 11t-11 26q0 9 6 20z" />
    <glyph glyph-name="ucircumflex" unicode="&#xfb;" horiz-adv-x="456" 
d="M42 467q0 16 11 27t27 11q15 0 26.5 -11t11.5 -27v-291q0 -21 8 -40t22.5 -33.5t33.5 -22.5t41 -8q21 0 40.5 8t33.5 22.5t22.5 33.5t8.5 40v291q0 16 11 27t27 11q15 0 26.5 -11t11.5 -27v-291q0 -37 -14.5 -70t-39 -57.5t-57.5 -38.5t-70 -14q-38 0 -70.5 14
t-57.5 38.5t-39 57.5t-14 70v291zM203 658q8 5 18 5q12 0 22 -7l66 -48q17 -12 17 -31q0 -16 -12.5 -27t-27.5 -11q-13 0 -21 7l-44 31l-43 -31q-10 -7 -21 -7q-16 0 -28 11t-12 27q0 19 17 31z" />
    <glyph glyph-name="udieresis" unicode="&#xfc;" horiz-adv-x="456" 
d="M42 467q0 16 11 27t27 11q15 0 26.5 -11t11.5 -27v-291q0 -21 8 -40t22.5 -33.5t33.5 -22.5t41 -8q21 0 40.5 8t33.5 22.5t22.5 33.5t8.5 40v291q0 16 11 27t27 11q15 0 26.5 -11t11.5 -27v-291q0 -37 -14.5 -70t-39 -57.5t-57.5 -38.5t-70 -14q-38 0 -70.5 14
t-57.5 38.5t-39 57.5t-14 70v291zM122 622q0 16 11 27t27 11q15 0 26.5 -11t11.5 -27t-11 -27t-27 -11q-15 0 -26.5 11t-11.5 27zM232 622q0 16 11 27t27 11q15 0 26.5 -11t11.5 -27t-11 -27t-27 -11q-15 0 -26.5 11t-11.5 27z" />
    <glyph glyph-name="yacute" unicode="&#xfd;" horiz-adv-x="436" 
d="M32 467q0 16 11 27t27 11q15 0 26.5 -11t11.5 -27v-295q0 -21 8 -40t22.5 -33.5t33.5 -22.5t41 -8q21 0 40.5 8t33.5 22.5t22.5 33.5t8.5 40v295q0 16 11 27t27 11q15 0 26.5 -11t11.5 -27v-142v-321q0 -38 -13 -70.5t-37 -57t-57.5 -38.5t-73.5 -14q-16 0 -27 11t-11 27
t11 27t27 11q21 0 40.5 8t33.5 22.5t22.5 33.5t8.5 40v25q-47 -33 -105 -33q-37 0 -70 14t-57.5 38.5t-39 57t-14.5 70.5v149v142zM224 688q10 18 32 18q17 0 27.5 -11t10.5 -26q0 -13 -5 -20l-41 -71q-11 -18 -32 -18q-17 0 -28 11t-11 26q0 9 6 20z" />
    <glyph glyph-name="ydieresis" unicode="&#xff;" horiz-adv-x="436" 
d="M32 467q0 16 11 27t27 11q15 0 26.5 -11t11.5 -27v-295q0 -21 8 -40t22.5 -33.5t33.5 -22.5t41 -8q21 0 40.5 8t33.5 22.5t22.5 33.5t8.5 40v295q0 16 11 27t27 11q15 0 26.5 -11t11.5 -27v-142v-321q0 -38 -13 -70.5t-37 -57t-57.5 -38.5t-73.5 -14q-16 0 -27 11t-11 27
t11 27t27 11q21 0 40.5 8t33.5 22.5t22.5 33.5t8.5 40v25q-47 -33 -105 -33q-37 0 -70 14t-57.5 38.5t-39 57t-14.5 70.5v149v142zM119 625q0 16 11 27t27 11q15 0 26.5 -11t11.5 -27t-11 -27t-27 -11q-15 0 -26.5 11t-11.5 27zM229 625q0 16 11 27t27 11q15 0 26.5 -11
t11.5 -27t-11 -27t-27 -11q-15 0 -26.5 11t-11.5 27z" />
    <glyph glyph-name="perthousand" unicode="&#x2030;" horiz-adv-x="788" 
d="M26 542q0 25 9.5 47.5t26.5 39t39 26t48 9.5q25 0 48 -9.5t39.5 -26t26.5 -39t10 -47.5v-99q0 -25 -10 -47.5t-26.5 -39t-39.5 -26t-48 -9.5t-47.5 9.5t-39 26t-26.5 39t-10 47.5v99zM102 444q0 -20 13.5 -33.5t33.5 -13.5t34 13.5t14 33.5v97q0 20 -14 33.5t-34 13.5
t-33.5 -13.5t-13.5 -33.5v-97zM336 216q0 25 9.5 47.5t26.5 39t39 26t48 9.5q25 0 46.5 -9.5t38.5 -25.5q35 35 86 35q25 0 48 -9.5t39.5 -26t26.5 -39t10 -47.5v-99q0 -25 -10 -47.5t-26.5 -39t-39.5 -26t-48 -9.5t-46.5 9t-38.5 25q-17 -16 -39 -25t-47 -9t-47.5 9.5
t-39 26t-26.5 39t-10 47.5v99zM507 215q0 21 -15 34t-33 13q-20 0 -33.5 -13.5t-13.5 -33.5v-97q0 -20 13.5 -33.5t33.5 -13.5q19 0 33.5 13t14.5 34v97zM583 118q0 -20 13.5 -33.5t33.5 -13.5t34 13.5t14 33.5v97q0 20 -14 33.5t-34 13.5t-33.5 -13.5t-13.5 -33.5v-97z
M440 647q4 8 11 11.5t15 5.5q17 2 29 -8.5t14 -25.5q2 -14 -5 -24l-346 -593q-5 -8 -12 -12t-14 -5q-17 -2 -30 8.5t-15 24.5t6 26z" />
    <glyph glyph-name="Scaron" unicode="&#x160;" horiz-adv-x="557" 
d="M112 147q18 -40 59.5 -66.5t98.5 -26.5q31 0 61 7t53 22t37 38.5t14 55.5t-13.5 58t-36.5 44t-52.5 27.5t-62.5 9.5q-46 0 -85.5 13t-68 38t-45 60.5t-16.5 79.5q0 83 58.5 129t156.5 46q2 0 23.5 -1.5t51.5 -11t61.5 -29.5t53.5 -57q2 -5 4.5 -11t2.5 -13
q0 -12 -10 -24.5t-27 -12.5q-19 0 -29 13q-13 15 -25.5 28t-27.5 22.5t-34 15t-45 5.5q-38 0 -64.5 -8.5t-43 -22t-23.5 -31.5t-7 -37q0 -27 11 -48t29.5 -36t44 -23t54.5 -8q49 0 93 -15t77 -43t52 -68t19 -89q0 -50 -19.5 -87.5t-53 -62.5t-78 -37t-94.5 -12q-10 0 -38 3
t-63 17.5t-70 44.5t-58 83q-4 9 -4 21q0 16 10 27t25 11t26.5 -10.5t17.5 -27.5zM184 773q-17 12 -17 31q0 16 12 27t28 11q11 0 21 -7l43 -31l44 31q8 7 21 7q15 0 27.5 -11t12.5 -27q0 -19 -17 -31l-66 -48q-10 -7 -22 -7q-10 0 -18 5z" />
    <glyph glyph-name="trademark" unicode="&#x2122;" horiz-adv-x="737" 
d="M55 623q-8 0 -14 5.5t-6 13.5t6 14t14 6h207q8 0 14 -6t6 -14t-6 -13.5t-14 -5.5h-84v-283q0 -8 -6 -13.5t-14 -5.5t-14 5.5t-6 13.5v283h-83zM264 541q0 25 9 47.5t24.5 39.5t37 26.5t47.5 9.5q31 0 53.5 -12t37.5 -32q17 20 39 32t52 12q25 0 47 -9.5t37.5 -26.5
t24.5 -39.5t9 -47.5v-201q0 -8 -6 -13.5t-14 -5.5t-13.5 5.5t-5.5 13.5v201q0 35 -22 59.5t-57 24.5t-53 -24.5t-18 -59.5v-201q0 -8 -6 -13.5t-14 -5.5t-13.5 5.5t-5.5 13.5v202q0 34 -19 58.5t-53 24.5q-35 0 -56.5 -24.5t-21.5 -59.5v-201q0 -8 -6 -13.5t-14 -5.5
t-14 5.5t-6 13.5v201z" />
    <glyph glyph-name="Zcaron" unicode="&#x17d;" horiz-adv-x="577" 
d="M83 584q-16 0 -27 11t-11 27q0 15 11 26.5t27 11.5h391q20 0 34.5 -9t14.5 -27q0 -12 -6 -22l-371 -526h346q16 0 27 -11t11 -27q0 -15 -11 -26.5t-27 -11.5h-413q-21 0 -33.5 10.5t-12.5 26.5q0 12 7 22l370 525h-327zM194 773q-17 12 -17 31q0 16 12 27t28 11
q11 0 21 -7l43 -31l44 31q8 7 21 7q15 0 27.5 -11t12.5 -27q0 -19 -17 -31l-66 -48q-10 -7 -22 -7q-10 0 -18 5z" />
    <glyph glyph-name="zcaron" unicode="&#x17e;" horiz-adv-x="474" 
d="M94 425q-16 0 -27 11t-11 27q0 15 11 26.5t27 11.5h271q20 0 34.5 -9t14.5 -27q0 -12 -6 -22l-255 -367h227q16 0 27 -11t11 -27q0 -15 -11 -26.5t-27 -11.5h-294q-21 0 -33.5 10.5t-12.5 26.5q0 12 7 22l254 366h-207zM142 605q-17 12 -17 31q0 16 12 27t28 11
q11 0 21 -7l43 -31l44 31q8 7 21 7q15 0 27.5 -11t12.5 -27q0 -19 -17 -31l-66 -48q-10 -7 -22 -7q-10 0 -18 5z" />
    <glyph glyph-name="ordmasculine" unicode="&#xba;" horiz-adv-x="335" 
d="M32.0684 442.297q0 25.2539 9.55273 47.7783t26.6104 39.2471t39.2324 26.2783q22.1758 9.55566 48.1035 9.55566q25.2451 0 47.7617 -9.55566t39.2324 -26.2783q16.7168 -16.7227 26.6104 -39.2471t9.89355 -47.7783v-101.701q0 -25.2549 -9.55176 -47.7793
q-9.55273 -22.5244 -26.6104 -39.2471t-39.5742 -26.2783t-47.7617 -9.55566q-25.2461 0 -47.7617 9.55566q-22.5166 9.55566 -39.2334 26.2783t-26.6104 39.2471t-9.89355 47.7793v101.701zM83.9248 340.596q0 -14.334 5.79883 -27.3027q5.7998 -12.9688 15.3525 -22.8652
q9.55273 -9.89746 22.8574 -15.3574q13.3047 -5.46094 27.6338 -5.46094q15.0107 0 27.9746 5.46094q12.9639 5.45996 22.8574 15.3574q9.89355 9.89648 15.3516 22.8652q5.45898 12.9688 5.45898 27.3027v101.701q0 14.333 -5.7998 27.3018t-15.3516 22.8652
q-9.55273 9.89746 -22.8574 15.3584q-13.3057 5.45996 -27.6338 5.45996q-15.0107 0 -27.9746 -5.45996q-12.9639 -5.46094 -22.8574 -15.3584q-9.89355 -9.89648 -15.3525 -22.8652q-5.45801 -12.9688 -5.45801 -27.3018v-101.701z" />
    <glyph glyph-name="ordfeminine" unicode="&#xaa;" horiz-adv-x="337" 
d="M35.0811 354.933q0 25.4014 9.97461 47.3701q9.97363 21.9688 26.8262 37.7588t39.5527 24.7148q22.6992 8.9248 48.1504 8.9248q17.1963 0 30.6104 -3.77539q13.4131 -3.77637 23.043 -7.89551q11.0059 -5.49219 18.5723 -11.6709q-4.81445 24.7148 -17.1963 39.1318
t-28.5469 20.2529q-16.1641 5.83496 -32.6729 4.46191t-29.5781 -8.23828q-9.63086 -5.49219 -19.9482 -2.40332q-10.3184 3.08984 -15.8213 12.7012t-2.06348 19.9092t13.0693 15.79q24.0752 15.79 56.0615 16.8203q31.9854 1.0293 60.5322 -13.0449
q28.5459 -14.0732 48.4941 -42.5645q19.9482 -28.4902 19.9482 -71.7412v-100.919q0 -26.0879 -9.97461 -48.4004q-9.97363 -22.3115 -26.8262 -39.1309q-16.8525 -16.8203 -39.5527 -26.4316q-22.6992 -9.61133 -48.1504 -9.61133q-26.1387 0 -48.4941 9.61133
q-22.3564 9.61133 -39.5527 26.4316q-17.1963 16.8193 -26.8271 39.1309q-9.62988 22.3125 -9.62988 48.4004v14.417zM87.3594 340.516q0 -14.417 5.50293 -27.4609t15.4766 -22.998q9.97363 -9.95508 23.0439 -15.4473q13.0693 -5.49219 28.2021 -5.49219
q14.4453 0 27.8584 5.49219q13.4141 5.49219 23.0439 15.4473q9.62988 9.9541 15.4766 22.998t5.84668 27.4609v15.79q-1.375 28.834 -22.0117 47.0264q-20.6357 18.1934 -50.2139 18.1934t-50.9023 -18.5361q-21.3232 -18.5361 -21.3232 -48.0566v-14.417z" />
    <glyph glyph-name="a" unicode="a" horiz-adv-x="441" 
d="M30 196q0 37 14.5 69t39 55t57.5 36t70 13q25 0 44.5 -5.5t33.5 -11.5q16 -8 27 -17q-7 36 -25 57t-41.5 29.5t-47.5 6.5t-43 -12q-14 -8 -29 -3.5t-23 18.5t-3 29t19 23q35 23 81.5 24.5t88 -19t70.5 -62t29 -104.5v-147q0 -38 -14.5 -70.5t-39 -57t-57.5 -38.5t-70 -14
q-38 0 -70.5 14t-57.5 38.5t-39 57t-14 70.5v21zM106 175q0 -21 8 -40t22.5 -33.5t33.5 -22.5t41 -8q21 0 40.5 8t33.5 22.5t22.5 33.5t8.5 40v23q-2 42 -32 68.5t-73 26.5t-74 -27t-31 -70v-21z" />
    <glyph glyph-name="percent" unicode="%" horiz-adv-x="643" 
d="M26 541q0 25 9.5 47.5t26.5 39t39 26t48 9.5q25 0 48 -9.5t39.5 -26t26.5 -39t10 -47.5v-99q0 -25 -10 -47.5t-26.5 -39t-39.5 -26t-48 -9.5t-47.5 9.5t-39 26t-26.5 39t-10 47.5v99zM102 443q0 -20 13.5 -33.5t33.5 -13.5t34 13.5t14 33.5v97q0 20 -14 33.5t-34 13.5
t-33.5 -13.5t-13.5 -33.5v-97zM359 221q0 25 9.5 47.5t26.5 39t39 26t48 9.5q25 0 48 -9.5t39.5 -26t26.5 -39t10 -47.5v-99q0 -25 -10 -47.5t-26.5 -39t-39.5 -26t-48 -9.5t-47.5 9.5t-39 26t-26.5 39t-10 47.5v99zM435 123q0 -20 13.5 -33.5t33.5 -13.5t34 13.5t14 33.5
v97q0 20 -14 33.5t-34 13.5t-33.5 -13.5t-13.5 -33.5v-97zM459 647q4 8 11 11.5t15 5.5q17 2 29 -8.5t14 -25.5q2 -14 -5 -24l-346 -593q-5 -8 -12 -12t-14 -5q-17 -2 -30 8.5t-15 24.5t6 26z" />
    <glyph glyph-name="glyph205" horiz-adv-x="510" 
 />
    <glyph glyph-name="glyph206" horiz-adv-x="510" 
 />
    <glyph glyph-name="copyright" unicode="&#xa9;" horiz-adv-x="517" 
d="M153 299q0 44 29 73t72 29q30 0 55 -15.5t36 -41.5h-1q5 -9 6 -13.5t1 -5.5q0 -11 -7.5 -18.5t-21.5 -7.5q-8 0 -17 7t-14 18q-2 9 -12.5 14.5t-24.5 5.5q-18 0 -31.5 -14t-13.5 -31v-83q0 -20 14 -33t31 -13q14 0 25 9t16 19q5 6 13 12.5t14 6.5q14 0 21.5 -8.5
t7.5 -22.5q0 -3 -0.5 -4.5t-2.5 -6.5q-12 -29 -37.5 -44.5t-56.5 -15.5q-43 0 -72 28.5t-29 72.5v83zM36 297q0 45 17.5 84.5t47 68.5t69.5 46t85 17t84.5 -17t69 -46t46.5 -68.5t17 -84.5v-80q0 -45 -17 -84t-46.5 -68.5t-69 -46.5t-84.5 -17t-85 17t-69.5 46.5t-47 68.5
t-17.5 84v80zM103 217q0 -32 12 -59t33 -47.5t48.5 -32t58.5 -11.5t58 11.5t47.5 32t32.5 47.5t12 59v80q0 30 -12 57t-32.5 48t-48 33t-57.5 12q-31 0 -58.5 -12t-48.5 -33t-33 -48t-12 -57v-80z" />
    <glyph glyph-name="registered" unicode="&#xae;" horiz-adv-x="519" 
d="M220 277v59h47q38 0 38 -26q0 -14 -8 -23.5t-26 -9.5h-51zM267 389h-73q-12 0 -19 -8.5t-7 -17.5v-216q0 -25 26 -25q11 0 18.5 6.5t7.5 18.5v72l90 -90v1q8 -8 21 -8t19.5 7.5t5.5 19.5q0 5 -2.5 9.5t-4.5 9.5q-1 1 1.5 -1t1.5 -1q-4 4 -11.5 10.5t-12.5 10.5h1
q-6 6 -12.5 12t-11.5 11l-13 14q33 7 49.5 30.5t16.5 55.5q0 44 -26.5 61.5t-64.5 17.5zM38 297q0 45 17.5 84.5t47 68.5t69.5 46t85 17t84.5 -17t69 -46t46.5 -68.5t17 -84.5v-80q0 -45 -17 -84t-46.5 -68.5t-69 -46.5t-84.5 -17t-85 17t-69.5 46.5t-47 68.5t-17.5 84v80z
M105 217q0 -32 12 -59t33 -47.5t48.5 -32t58.5 -11.5t58 11.5t47.5 32t32.5 47.5t12 59v80q0 30 -12 57t-32.5 48t-48 33t-57.5 12q-31 0 -58.5 -12t-48.5 -33t-33 -48t-12 -57v-80z" />
    </font>
</defs>
</svg>
